<svg xmlns="http://www.w3.org/2000/svg" width="425" height="416"><path fill="#f8bf6f" d="M167 0c2.6-.2 2.6-.2 5 0l.1 1.9c2 26.6 2 26.6 4.9 36.1l2 1 1.4 4.6c1.3 4.7 3 8.3 5.6 12.4l1.8 3.1q3.6 6.4 7.6 12.5c2.6 4.2 2.6 4.2 2.6 6.4l1.8.7c2.6 1.5 3.8 3 5.5 5.4l1.8 2.4L209 89l3.6 4.8 1.6 2q4 4.6 8.3 8.7A65 65 0 0 1 240 131l1 2.1c3 6 3.3 13 3.8 19.5.2 2.4.2 2.4 1.2 5.4l.3 6.1a32 32 0 0 0 11.7 23.7l4.2 3.5c1.9 1.8 2.8 3.3 3.8 5.7 12-2.4 21.8-7.9 29-18q1.7-3 3-6h2l.6-2 .8-2.6.7-2.6 2-5.7c3.1-10 3-20.6 2.9-31a56 56 0 0 1 1.6-15.3c.4-1.8.4-1.8.4-4.8l-1.7 1a48 48 0 0 1-33.3 5 35 35 0 0 1-7-4c1-1.5 1-1.5 3-3h3.1c4.2 0 7.5-.7 11.5-1.8l3.9-1c3.2-1.1 5.7-2.3 8.5-4.2l-2.2-.4c-6.7-1.6-10-2.8-13.8-8.6 3.4-1 6.5-1.1 10-1.2 13.2-1 21.4-7.2 31-15.8 9.4-8.4 19.2-14 32.2-13.4 5.4.7 10 1.7 14 5.6 4.1 2.7 7 1.7 11.7.7l2.6-.4 14.6-3q8-1.7 16-2.7l2.2-.3a20 20 0 0 1 9.7.5c-.2 2.4-.2 2.4-1 5-2.2 1.3-2.2 1.3-5.1 2.4q-7.2 2.7-14 5.8l-2 1q-8.5 4-16.9 8.7a83 83 0 0 1-11.8 5.3c-4.4 1.6-5.8 3.7-8.2 7.8a55 55 0 0 1-11.6 7.4 26 26 0 0 0-9.4 8.6l-2 2.2c-7.8 11.2-8.2 26-9 39l-.3 3.6-1 15a127 127 0 0 1-4.3 28c-3 12.6-9.6 24.2-16.4 35.2l-1.3 2c-1 1.7-1 1.7-2.7 4h-2l-.7 1.6q-2.8 4.6-6.7 8.5l-1.4 1.7a21 21 0 0 1-8.2 6.2v2l-5.4 4c-5.5 3.8-5.5 3.8-6.6 6l-4.6 2.3q-5.9 2.9-11.3 6.5c-5.4 3-11.3 5.1-17.1 7.3l-2 .7a49 49 0 0 1-20 4.2l2-4h2v-2l-1.8 1c-2.2 1-2.2 1-5.2 2v2c-1.9 1.5-1.9 1.5-4.3 3.1l-2.4 1.7C210 299 210 299 207 299v2q-7 3.7-14.6 6.5c-4.8 1.8-9 3.9-13.4 6.5h-2v2l-3 1.3-2 .9-5.4 2c-4.8 2-8.6 5.5-12.6 8.8 3.2 0 5-.7 8-2v-2l5-1c4.1 4.5 6.6 9 9 14.5q3.4 7.6 8 14.5l4.6 8.3q2 3.7 3.4 7.7h2l-1-6 1.8-.2 2.4-.2 2.4-.3a48 48 0 0 0 6.4-1.3v-2l2.3-2c2.9-2.9 4-5.8 5.6-9.5q2.5-5.3 5.8-10.2a19 19 0 0 0 2.3-6.3h2l.8-2.7a43 43 0 0 1 4.2-8.3l2.8-5.2Q236 307 241 300l1.5-2.2c4.2-5.8 7.9-8.2 14.4-10.7A47 47 0 0 0 268 281l4.9-3.4q5.8-4.1 11.5-8.5c1.6-1.1 1.6-1.1 3.6-1.1l.8-1.8c1.4-2.5 2.8-3.8 5-5.6q3.7-3.1 7-6.5c2.2-2.1 2.2-2.1 6.2-2.1-.5 5.8-3 10.2-5.7 15.2l-1.4 2.6-3.9 7.2-1.7 3.1-6.6 12-1.2 2.1-2.4 4.2q-2.4 4-4.2 8.4c-1 2.4-2 3.4-3.9 5.2q-6.9 11-12.3 22.9c-1.7 3-3.5 5.4-5.7 8.1a52 52 0 0 0-6 12.3 14 14 0 0 1-7 8.7l-1 3h-2l-.9 1.8C240 371 240 371 238 374l-1.1 5a40 40 0 0 1-9.9 17l-3 1v2l-6.6 4-1.8 1a27 27 0 0 1-12.6 4l-2.5.2a40 40 0 0 1-29-10.5L169 395l-1.6-1.7c-4.7-5-8-10.4-11.4-16.3l-1.5-2.4q-2.3-4.2-4.4-8.5a72 72 0 0 0-5.3-9.5 18 18 0 0 1-4-10.4c1.8-4.8 5.2-8 9.2-11.2h2l-1-2a38 38 0 0 0-14 13h-3c-.1-7.8-.1-7.8 1-10v-7c-5.1 5.1-4.4 14.3-4.6 21q-.1 9-1.4 18c-2.9-.4-3.8-.8-5.7-3l-1.3-2-1.6 2.5q-2.7 3.9-6 7.5a41 41 0 0 0-6.4 10l-5 5-5.1 5.6-2.6 2.8c-2.3 2.6-2.3 2.6-4 5L90 403h-2v1.8c-1.5 3.4-4.3 4.3-7.5 5.8l-2 1A36 36 0 0 1 55 415c1.4-2.8 3.3-3.4 6-5l2.7-2.2C66 406 66 406 68 406v-2h2v-3l-1.7 1.3-2.2 1.7-2.2 1.7C62 407 62 407 60 407v2l-9.5 3.5-2.7 1a31 31 0 0 1-22.8.5l1-3c2.7-1.2 2.7-1.2 6.2-2.4 4.8-1.8 8.7-3.5 12.8-6.6l3.3-2.1C51 398 51 398 52 396l-4-2v-2q4.7-2 9.8-2.8a27 27 0 0 0 11.5-5C71 383 71 383 74 382v-2h2v-2h2v-3h2l.8-1.6q2.3-4.5 5.2-8.6l2.1-3.3L90 359h2v-2h2l.8-2.2c2-4.7 5.2-8.7 8.2-12.8l1.8-2.6 1.8-2.5 1.6-2.2c2.2-2.1 3.7-2.5 6.8-2.7l2 2 1-17-2 3h-2l-.6 2.4A71 71 0 0 1 90 351l-2 2-3 1-1.3 1.4c-10.4 10.1-30.9 12-44.7 12.7-4.2-.1-7.9-.9-12-2.1v-3c3-1.7 5.8-2.4 9.3-3 8.5-2 18-7.3 24.2-13.5C62 345 62 345 65 343c3.1-2.1 4.9-4 7.1-7.1l4-5c-3 .6-5.3 1.6-8 3.3-12.6 7.4-23.3 10.8-38 7.7l-2-1c.7-2 .7-2 2-4 2-.8 2-.8 4.4-1.2 13.7-3.7 22.7-14.4 31.3-25Q71 304.3 77 298l2.4-2.7q9.3-8.2 20.6-13.3-4.3-3.8-9.7-6.2c-8.3-4-16.8-11-20.3-19.8-.4-2.5-.3-4.5 0-7a22 22 0 0 1 9.8 3.9Q86.4 257 94 259v-2l-2.3-.6c-3.6-1.8-4.4-3.8-6.3-7.3l-2.1-3.9-1.1-2-5.1-9q-6.8-11.5-13.3-23.1l-1.4-2.6-1.4-2.4-1.2-2.1c-.8-2-.8-2-.8-6 2.6-.3 2.6-.3 6 0l4.3 3.6q4.3 3.3 9 5.8l2.2 1.2q8.1 4.3 17 7.2 8.4 2.8 14.5 9.2v2h2c2.1 1.9 2.1 1.9 4 4v2h2l1 2.5q3 7.9 6.3 15.5c1.4 3.1 2.2 5.5 1.7 9l-7 2c14.4 1.1 29.2-7.4 41.6-13.9 2.4-1.1 2.4-1.1 4.4-1.1l-1-3-4-.2c-5.2-.6-9.4-2.4-14-4.8l-2.3-1.1-1.7-.9 1-3h11v-2h-3.5c-12.2-.4-23.7-1.9-33.5-10v-2h-2v-2l2.1-.2 9.7-.7 3.3-.3 3.3-.3 3-.2q3.4-.4 6.6-1.3a68 68 0 0 1 8 0v-2l-20.6.2a116 116 0 0 1-44.6-5.9l-2.8-1c-19.2-7.5-19.2-7.5-24-13.3v-2l-3-1-2-3 1-3c12.5 2.7 12.5 2.7 17.3 4.6 16.6 5.5 35.5 3.6 52.7 3.4q-7.3-1.8-14.8-2.5a143 143 0 0 1-22-3.5c-26.9-5.6-49-15.8-66.2-37.6-2-2.4-2-2.4-5-4.4v-2h-2l-.8-2.6-2.8-7.2C13 129 13 129 13 127c3.5.6 6 2 9 4l1 2 5 2 3 2v2q5.3 2.7 10.5 5l3.4 1.7c2.5 1 4.5 1.7 7.1 2.3l6.3 2.4Q65 153.1 72 155l3.6 1.4A95 95 0 0 0 107 162l-2.5-.8-13.4-4Q79.4 153.6 68 149l-2.3-1c-5.9-2.3-11.1-5.7-16.5-9.1-3.2-1.9-3.2-1.9-6.9-3.5a22 22 0 0 1-7-4.3l-1.7-1.6Q27.4 123.6 22 117v-2h-2l-3.1-3.4-1.7-1.9C14 108 14 108 14 106h-2c-2.8-5.1-4.7-10-6.3-15.6q-1-3-2.3-6A43 43 0 0 1 0 64c3.4 1.5 4.6 2.5 6 6h2l3 5 5 5 2.5 2.6C21 85 21 85 23.8 87.2L26 89v2l2.1.7a28 28 0 0 1 7 4.8 126 126 0 0 0 24.4 14.8q5.3 2.6 10.4 5.5a86 86 0 0 0 16.6 7L93 126c-1.8-1.8-4.6-2.2-7-3v-2l-2.2-.9L76 117v-2l-2.6-.8c-3.6-1.3-6.3-3-9.4-5.1l-1.7-1.2A372 372 0 0 1 37 88v-2h-2c-1.5-2-1.5-2-3.2-5a342 342 0 0 0-11.5-17.2c-3.8-5.1-5-9-5.2-15.5C15 46 15 46 14 44q-.6-4.5-.7-9l-.3-2.6c-.3-6 .7-10.8 3-16.4h3l1.2 3a79 79 0 0 0 12.9 22.4A25 25 0 0 1 37 49h2c3 4.4 3 4.4 3 7l3 1 5 5q7.3 6.6 15.7 12l3.3 2v2h2l2 2.1C77.8 85.2 84.7 88 91 91l2.1 1 4.2 2q5.8 3 11.1 6.9 3 1.9 6 3.2l8.3 3.8q7.5 3.6 15.3 6.3l14 5.6 2.2.8 2 .8c1.8.6 1.8.6 4.8.6l-2-1c-5.3-2.4-9-4.7-13-9l-3-1-3-6.6-1.6-3.7q-3.3-9.1-5-18.7l-.5-2a30 30 0 0 1 .1-13c4.1 1.4 4.4 3.2 6.3 7 8 15.5 8 15.5 14.7 20v-4h-2l-1.5-3.2-1.9-4.2-1-2.2c-2.4-5.3-2.4-5.3-4.6-6.4l-.7-5.6q-.5-3.9-1.4-7.8c-1-5.3-1.2-10.2-.9-15.6v-2.8c.4-6.4 1.8-10.7 5-16.2 2 .6 2 .6 4 2 .6 2.5.6 2.5.9 5.6.7 5.7 2 10.7 4.1 16l.8 2.2c1.1 2.9 2 5 4.2 7.2l1 6 3-1-.8-1.9-1-2.5L160 57a67 67 0 0 1 1.2-47.8c1.7-3.4 3.3-6.4 5.7-9.3m-3 69c1.2 3.4 2.3 5.6 5 8 0-3.6-1-5-3-8zm177.7 12A31 31 0 0 0 329 93v2h-2c-1.7 2.3-1.7 2.3-3 5l1 3 1.5-1.5c5.5-5.2 11-8.7 17.9-12C347 88 347 88 348 85h-2l1-4c-3-1-3-1-5.3 0M322 103c-1.4 2.4-2 3.5-1.6 6.3l.6 1.7c2.1-4.6 2.1-4.6 1-8m-160 20c3 2 4.6 2.5 8 3-3-2.6-3.7-3-8-3m8 3 3 3 3-1c-3-2-3-2-6-2m32 22c1.3 4 2.5 5.8 6 8-1.3-4-2.5-5.8-6-8m-93 15v2l4-1zm112 14c0 7.1 8 14 12.8 18.8l2.2 2.2 2 2h3l1-3 2-2c-3.3-3.3-7.6-4.5-12-6l-2-4a88 88 0 0 0-6.2-6.4C222 177 222 177 221 177m86 17-2 1.6-2.7 2.2-2.6 2.2a81 81 0 0 1-7.7 5v1l5 1v2h3c1.5-1.9 1.5-1.9 3-4.3l1.6-2.4 1.4-2.3 2-3zm-58 2-1 2 3-1zm3 1v2h9v-2zm-11 3c2.5 2.8 4.2 4.5 8 5a16 16 0 0 0-8-5m9 5v2c4.1 1.6 5.6 2.1 10 1zm18 26v2c4.8-1.9 4.8-1.9 7-3v-2c-3 0-4.6 1.4-7 3m-4 2-1 2 3-1zm-39.1 11.5-3.3.8-2.6.7v1l4.8-.4 2.6-.3q3.4-.4 6.6-1.3v-2c-2.8 0-5.4.8-8.1 1.5m-17.6 3.5-2.4.6-1.9.4v2q6-.8 12-2v-2c-2.8 0-5 .4-7.7 1m-12.3 4-1 2 6-1v-1zm-12 6-2 2 2 1 3-3zm-86 1 1 2Zm2 0 1 2Zm4 2c2 2 2 2 4.4 2.2h2.7l2.8-.1 2.1-.1c-2.9-1.7-5-2.2-8.2-2.1zm77-1a69 69 0 0 0-16 12v2a40 40 0 0 0 8.5-5.4q4.2-3.5 8.5-6.6zm-19 17q-6.3 4.4-10 11v2c3.7-1.5 5.4-3.5 7.8-6.6l1.8-2.5 1.4-1.9zm-15 20c-2.2 2.2-3 4.3-4.2 7q-1 2.8-2.4 5.3a59 59 0 0 0-3 11.4L135 327l2 1c2.6-1.2 2.6-1.2 5-3l1-3 2.3-.3a13 13 0 0 0 6.5-3.8l2-1.9 2-2 2.1-1.9c3.7-3.5 3.7-3.5 5.1-5.1v-2c-4.2.6-7 2-10.5 4.4L142 316l1.1-3.6 1.5-4.8.7-2.4.7-2.3.7-2.1c.3-1.8.3-1.8-.7-3.8m-27 18 1 2Zm-35 6 1 2Zm-4 4 1 2 1-2zm-3 2 2 2 1-2zm39 11-.2 2-.2 2.8-.3 2.7c-.3 2.5-.3 2.5-1.3 5.5h-2q-2.7 3-5.1 6.4l-1.4 1.8c-3.5 4.5-3.5 4.5-3.5 6.8l-1.9.8c-2.5 1.5-2.8 2.6-4.1 5.2l-5 5v2l-1.9.8c-2.5 1.4-3 2.6-4.1 5.2h-2l-3.6 3.9-2 2.2C76 393 76 393 76 395l-4 2 2 2 3-2.6q4-3.5 8.6-6.3 6.3-4 10.4-10.1v-2h2l3.4-5.6Q106 366 111 360l2-2.7c2-2.3 2-2.3 5-3.3l2 8h2q-.7-4.1-2-8c-1.5-5.2-1.7-10.6-2-16zm78 31c1.2 3.7 1.7 4.8 5 7-1.2-3.7-1.7-4.8-5-7m6 6v3h2l-1-3zm9 6 3 2 2-1zm8 0 1 2 3-1z"/><path fill="#ce4024" d="M17 18c2.5 2.5 3.2 4.8 4.4 8.1C31.4 50.6 52.7 69.3 74 84l1.8 1.2a308 308 0 0 0 61.8 31.8c8 3.3 8 3.3 10.5 7.3l.9 2.7a9 9 0 0 0 4 1l-4 1v4l2 .7c12 5 23 12.2 33 20.3l2.7 2c5.1 4 9.4 7.9 13.3 13v2l-2 1.3c-2 1.7-2 1.7-3 4.1v2.6l1.9 1.8c2.4 2.6 3 4.4 4 7.8l.7 2.8c.4 2.6.4 2.6-.6 5.6l-2.8-2.4-1.8-1.6-3.8-3.3a87 87 0 0 0-10.5-7.9c-1.8-1.3-1.8-1.3-3.1-2.8q-.5-3.4-.1-7c.1-2 .1-2-1-4.5-2.9-2.2-5.3-2.4-8.9-2.5a9 9 0 0 0-5.3 3.6q-1.3 5.2.3 10.4c1.7 2 1.7 2 4 3 3.4.3 5.7.1 9-1l2.1 2q9 8.4 18.6 15.8 6.2 4.8 11.8 10.4c15.4 14.7 33.8 19.8 54.5 20.8-3.9 3.5-8.5 4.8-13.4 6.4l-2.7 1c-10.1 3.2-20.4 5-30.9 6.6l1-2.7c2-6.7 2-13-1-19.6-5.7-10-15.3-13.6-26-16.7l-2.8-.5c-2.2-.5-2.2-.5-4-3.1L182 199c-3.6 0-3.6 0-7 1-2 3-2 3-1.8 6 .8 3 .8 3 3.8 5 5.4-.4 5.4-.4 8-3a41 41 0 0 1 23.5 8.4 24 24 0 0 1 7.6 16.4c-.2 4.4-2 7.8-4.7 11.2-3.3 2.8-6.7 3.6-10.8 4.8A85 85 0 0 0 168 267l-2.6 2.3A127 127 0 0 0 128 367h-3c-1.7-2-1.7-2-3-4l-1.6 2.5q-2.7 3.9-6 7.5a41 41 0 0 0-6.4 10l-5 5-5.1 5.6-2.6 2.8c-2.3 2.6-2.3 2.6-4 5L90 403h-2v1.8c-1.5 3.4-4.3 4.3-7.5 5.8l-2 1A36 36 0 0 1 55 415c1.4-2.8 3.3-3.4 6-5l2.7-2.2C66 406 66 406 68 406v-2h2v-3l-1.7 1.3-2.2 1.7-2.2 1.7C62 407 62 407 60 407v2l-9.5 3.5-2.7 1a31 31 0 0 1-22.8.5l1-3c2.7-1.2 2.7-1.2 6.2-2.4 4.8-1.8 8.7-3.5 12.8-6.6l3.3-2.1C51 398 51 398 52 396l-4-2v-2q4.7-2 9.8-2.8a27 27 0 0 0 11.5-5C71 383 71 383 74 382v-2h2v-2h2v-3h2l.8-1.6q2.3-4.5 5.2-8.6l2.1-3.3L90 359h2v-2h2l.8-2.2c2-4.7 5.2-8.7 8.2-12.8l1.8-2.6 1.8-2.5 1.6-2.2c2.2-2.1 3.7-2.5 6.8-2.7l2 2 1-17-2 3h-2l-.6 2.4A71 71 0 0 1 90 351l-2 2-3 1-1.3 1.4c-10.4 10.1-30.9 12-44.7 12.7-4.2-.1-7.9-.9-12-2.1v-3c3-1.7 5.8-2.4 9.3-3 8.5-2 18-7.3 24.2-13.5C62 345 62 345 65 343c3.1-2.1 4.9-4 7.1-7.1l4-5c-3 .6-5.3 1.6-8 3.3-12.6 7.4-23.3 10.8-38 7.7l-2-1c.7-2 .7-2 2-4 2-.8 2-.8 4.4-1.2 13.7-3.7 22.7-14.4 31.3-25Q71 304.3 77 298l2.4-2.7q9.3-8.2 20.6-13.3-4.3-3.8-9.7-6.2c-8.3-4-16.8-11-20.3-19.8-.4-2.5-.3-4.5 0-7a22 22 0 0 1 9.8 3.9Q86.4 257 94 259v-2l-2.3-.6c-3.6-1.8-4.4-3.8-6.3-7.3l-2.1-3.9-1.1-2-5.1-9-14.7-25.7-1.4-2.4-1.2-2.1c-.8-2-.8-2-.8-6 2.6-.3 2.6-.3 6 0l4.3 3.6q4.3 3.3 9 5.8l2.2 1.2q8.1 4.3 17 7.2 8.4 2.8 14.5 9.2v2h2c2.1 1.9 2.1 1.9 4 4v2h2l1 2.5q3 7.9 6.3 15.5c1.4 3.1 2.2 5.5 1.7 9l-7 2c14.4 1.1 29.2-7.4 41.6-13.9 2.4-1.1 2.4-1.1 4.4-1.1l-1-3-4-.2c-5.2-.6-9.4-2.4-14-4.8l-2.3-1.1-1.7-.9 1-3h11v-2h-3.5c-12.2-.4-23.7-1.9-33.5-10v-2h-2v-2l2.1-.2 9.7-.7 3.3-.3 3.3-.3 3-.2q3.4-.4 6.6-1.3a68 68 0 0 1 8 0v-2l-20.6.2a116 116 0 0 1-44.6-5.9l-2.8-1c-19.2-7.5-19.2-7.5-24-13.3v-2l-3-1-2-3 1-3 5 1v2l8 2.4 2.2.6c15.1 4.4 30.8 4.3 46.4 4.5 11.5 0 22.2 1 33.4 3.5a143 143 0 0 0-43-11.2c-28.2-3.5-55.4-10-76-30.8l-2.6-2.6A86 86 0 0 1 16 132l1-2 2.3 2c24.4 19.6 55 27.2 85.2 33a242 242 0 0 1 36.6 10.7l2.3.8 1.6.5c-16.5-10.7-35.4-16.3-54-22.1-32.4-10.3-63.8-26-80.3-57.4C6 87.8 1.7 77 1 66q4.5 4.2 8.2 9.2A129 129 0 0 0 36 100l3.2 2.4c17.5 12.5 37.9 21 57.7 29.1 14.7 6 29.6 12.5 42.4 22.3a12 12 0 0 0 4.7 2.2 122 122 0 0 0-17.9-14.8q-.8-.7-2-1.3c-7.3-4.8-15-8.7-22.8-12.7l-8.5-4.2-2-1c-30.3-15.4-59.1-34.6-71.6-67.5a64 64 0 0 1-3.4-22.2v-2.9c0-4 0-7.5 1.2-11.4m80 241 1 2Zm2 0 1 2Zm4 2c2 2 2 2 4.4 2.2h2.7l2.8-.1 2.1-.1c-2.9-1.7-5-2.2-8.2-2.1zm16 54 1 2Zm-35 6 1 2Zm-4 4 1 2 1-2zm-3 2 2 2 1-2zm39 11-.2 2-.2 2.8-.3 2.7c-.3 2.5-.3 2.5-1.3 5.5h-2q-2.7 3-5.1 6.4l-1.4 1.8c-3.5 4.5-3.5 4.5-3.5 6.8l-1.9.8c-2.5 1.5-2.8 2.6-4.1 5.2l-5 5v2l-1.9.8c-2.5 1.4-3 2.6-4.1 5.2h-2l-3.6 3.9-2 2.2C76 393 76 393 76 395l-4 2 2 2 3-2.6q4-3.5 8.6-6.3 6.3-4 10.4-10.1v-2h2l3.4-5.6Q106 366 111 360l2-2.7c2-2.3 2-2.3 5-3.3l2 8h2q-.7-4.1-2-8c-1.5-5.2-1.7-10.6-2-16z"/><path fill="#d34a25" d="M360 67c3.4 1.2 5.6 2.3 8 5l3 2c.7 3.1.7 3.1 1 6l2.9-1 22.3-6.7 2.1-.7Q404.6 70 410 69c-3.8 3.2-8 5.1-12.4 7.2l-2.5 1.2-18 8.8-2.3 1.1c-5.6 2.7-5.6 2.7-7.8 2.7l-.8 1.8c-3 5.4-8.6 8.5-13.7 11.6a37 37 0 0 0-17.4 24q-3.1 14.8-3.7 30.1c-1.8 34.5-8.1 64.6-31.4 91.5l-2 2.4c-7.6 9-17.1 16-27 22.6l-2.2 1.5c-9.2 5.9-30 18-41.1 16l-1.7-.5 1.8-2.1a37 37 0 0 0 5-9l1.2-3.2c1-2.7 1-2.7 1-5.7l-3 4.4-1.6 2.4C229 280 229 280 228 282h2c-.1 1.8-.1 1.8-1 4-2.8 1.6-2.8 1.6-6 3l-2.4 1.2-1.6.8v2c-1.9 1.5-1.9 1.5-4.3 3.1l-2.4 1.7C210 299 210 299 207 299v2q-7 3.7-14.6 6.5c-4.8 1.8-9 3.9-13.4 6.5h-2v2l-3 1.3-2 .9-5.4 2c-4.8 2-8.6 5.5-12.6 8.8 3.2 0 5-.7 8-2v-2l5-1c4.1 4.5 6.6 9 9 14.5q3.4 7.6 8 14.5l4.6 8.3q2 3.7 3.4 7.7h2l-1-6 1.8-.2 2.4-.2 2.4-.3a48 48 0 0 0 6.4-1.3v-2l2.3-2c2.9-2.9 4-5.8 5.6-9.5q2.5-5.3 5.8-10.2a19 19 0 0 0 2.3-6.3h2l.8-2.7a43 43 0 0 1 4.2-8.3l2.8-5.2a150 150 0 0 1 10.7-17c4.2-5.8 7.9-8.2 14.4-10.7A47 47 0 0 0 268 281l4.9-3.4q5.8-4.1 11.5-8.5c1.6-1.1 1.6-1.1 3.6-1.1l.8-1.8c1.4-2.5 2.8-3.8 5-5.6q3.7-3.1 7-6.5c2.2-2.1 2.2-2.1 6.2-2.1-.5 5.8-3 10.2-5.7 15.2l-1.4 2.6-3.9 7.2-1.7 3.1-6.6 12-1.2 2.1-2.4 4.2q-2.4 4-4.2 8.4c-1 2.4-2 3.4-3.9 5.2q-6.9 11-12.3 22.9c-1.7 3-3.5 5.4-5.7 8.1a52 52 0 0 0-6 12.3 14 14 0 0 1-7 8.7l-1 3h-2l-.9 1.8C240 371 240 371 238 374l-1.1 5a40 40 0 0 1-9.9 17l-3 1v2l-6.6 4-1.8 1a27 27 0 0 1-12.6 4l-2.5.2a40 40 0 0 1-29-10.5L169 395l-1.6-1.7c-4.7-5-8-10.4-11.4-16.3l-1.5-2.4q-2.3-4.2-4.4-8.5a72 72 0 0 0-5.3-9.5 18 18 0 0 1-4-10.4c1.8-4.8 5.2-8 9.2-11.2h2l-1-2c-4.9 2.5-8.3 6-12 10l-2 2-1-1c0-2.1 0-2.1.3-4.7q0-1.4.2-2.7c1-5.3 4-8.4 8-12l2.8-2.3q3.7-3.2 7.7-6.2c14-11 14-11 16-17.1a210 210 0 0 0-27 15 38 38 0 0 1 4.5-12.6l1-2.1c3.5-6.7 7.7-12.5 12.5-18.3l1.7-2.2c13.8-17 35.3-25 56.2-29.1l3.8-.8c5.9-1.2 11.3-2 17.3-1.9l1-2c3-.9 3-.9 6.5-1.7l3.6-.8 2.9-.5 1 1 4 1-4 2 1 8c25-11.5 45.1-30.9 55-57a141 141 0 0 0 6-26l-.9 2.3A56 56 0 0 1 307 191l-2 2.3a45 45 0 0 1-17 11.7l-2.9 1.3A57 57 0 0 1 246 201c3.7-1.2 7-1 11-.8 13.3.2 25.2-4.7 35.1-13.7 8.3-8.8 13-19.9 15.9-31.5l.6-2.5c1.6-7.2 1.8-14.5 2-21.8.6-16 .6-16 2.4-17.7l.5-5.4c.4-5.4.4-5.4 1.5-7.6l-2 1.6c-9 7.5-16 11.6-28 11.5h-2q-5.6.1-11-1.1v-1l3.3-.4A58 58 0 0 0 306 98l-3.1-.1-4-.3h-2.1A27 27 0 0 1 286 95v-1h2.4A49 49 0 0 0 321 80c3-2 3-2 6-3s3-1 4.4-2.6c2.6-2.3 5.2-2.3 8.6-2.4 2 1.4 2 1.4 3 3-6.7 4-6.7 4-9 4l-.7 1.7c-1.3 2.3-1.3 2.3-3.1 4.5-2.9 3.7-5 7.7-7.2 11.8l-1.3 2.2A61 61 0 0 0 315 132l.7-2.8 1-3.6 1-3.7 1.3-2.9c2-.8 2-.8 4-1l4-4 2-2v-6l3-1 1-2c5.5-5.2 11.6-9 18-13l5-3.2 2.2-1.4C360 84 360 84 362 81c.6-5 .3-9.5-2-14M194 369c1.2 3.7 1.7 4.8 5 7-1.2-3.7-1.7-4.8-5-7m6 6v3h2l-1-3zm9 6 3 2 2-1zm8 0 1 2 3-1z"/><path fill="#d24a25" d="M17 18c2.5 2.5 3.2 4.8 4.4 8.1C31.4 50.6 52.7 69.3 74 84l1.8 1.2a308 308 0 0 0 61.8 31.8c8 3.3 8 3.3 10.5 7.3l.9 2.7a9 9 0 0 0 4 1l-4 1v4l2 .7c12 5 23 12.2 33 20.3l2.7 2c5.1 4 9.4 7.9 13.3 13v2l-2 1.3c-2 1.7-2 1.7-3 4.1v2.6l1.9 1.8c2.4 2.6 3 4.4 4 7.8l.7 2.8c.4 2.6.4 2.6-.6 5.6l-2.8-2.4-1.8-1.6-3.8-3.3a87 87 0 0 0-10.5-7.9c-1.8-1.3-1.8-1.3-3.1-2.8q-.5-3.4-.1-7c.1-2 .1-2-1-4.5-2.9-2.2-5.3-2.4-8.9-2.5a9 9 0 0 0-5.3 3.6q-1.3 5.2.3 10.4c1.7 2 1.7 2 4 3 3.4.3 5.7.1 9-1l2.1 2q9 8.4 18.6 15.8 6.2 4.8 11.8 10.4c15.4 14.7 33.8 19.8 54.5 20.8-3.9 3.5-8.5 4.8-13.4 6.4l-2.7 1c-10.1 3.2-20.4 5-30.9 6.6l1-2.7c2-6.7 2-13-1-19.6-5.7-10-15.3-13.6-26-16.7l-2.8-.5c-2.2-.5-2.2-.5-4-3.1-2.2-2.4-2.2-2.4-5.7-2.7-3.9 1.4-4.2 1.9-6 5.4L171 208h-3l-3-4-2.6-2c-2.5-2-3-2.9-3.4-6l-1 3-1.1-3.2a14 14 0 0 0-5-6.5 14 14 0 0 1-4.9-6.3c-3.1-2.1-6.3-2.5-10-3l1-4 2.4.5c2.6.5 2.6.5 4.6.5-16.5-10.7-35.4-16.3-54-22.1-32.4-10.3-63.8-26-80.3-57.4C6 87.8 1.7 77 1 66q4.5 4.2 8.2 9.2A129 129 0 0 0 36 100l3.2 2.4c17.5 12.5 37.9 21 57.7 29.1 14.7 6 29.6 12.5 42.4 22.3a12 12 0 0 0 4.7 2.2 122 122 0 0 0-17.9-14.8q-.8-.7-2-1.3c-7.3-4.8-15-8.7-22.8-12.7l-8.5-4.2-2-1c-30.3-15.4-59.1-34.6-71.6-67.5a64 64 0 0 1-3.4-22.2v-2.9c0-4 0-7.5 1.2-11.4"/><path fill="#d04725" d="M307 252c-.5 5.8-3 10.2-5.7 15.2l-1.4 2.6-3.9 7.2-1.7 3.1-6.6 12-1.2 2.1-2.4 4.2q-2.4 4-4.2 8.4c-1 2.4-2 3.4-3.9 5.2q-6.9 11-12.3 22.9c-1.7 3-3.5 5.4-5.7 8.1a52 52 0 0 0-6 12.3 14 14 0 0 1-7 8.7l-1 3h-2l-.9 1.8C240 371 240 371 238 374l-1.1 5a40 40 0 0 1-9.9 17l-3 1v2l-6.6 4-1.8 1a27 27 0 0 1-12.6 4l-2.5.2a40 40 0 0 1-29-10.5L169 395l-1.6-1.7c-4.7-5-8-10.4-11.4-16.3l-1.5-2.4q-2.3-4.2-4.4-8.5a72 72 0 0 0-5.3-9.5 18 18 0 0 1-4-10.4c1.8-5 5.4-7.8 9.2-11.2l2-1.8c3-2.8 5.8-5 10-6.2v-2l5-1c4.1 4.5 6.6 9 9 14.5q3.4 7.6 8 14.5l4.6 8.3q2 3.7 3.4 7.7h2l-1-6 1.8-.2 2.4-.2 2.4-.3a48 48 0 0 0 6.4-1.3v-2l2.3-2c2.9-2.9 4-5.8 5.6-9.5q2.5-5.3 5.8-10.2a19 19 0 0 0 2.3-6.3h2l.8-2.7a43 43 0 0 1 4.2-8.3l2.8-5.2a150 150 0 0 1 10.7-17c4.2-5.8 7.9-8.2 14.4-10.7A47 47 0 0 0 268 281l4.9-3.4q5.8-4.1 11.5-8.5c1.6-1.1 1.6-1.1 3.6-1.1l.8-1.8c1.4-2.5 2.8-3.8 5-5.6q3.7-3.1 7-6.5c2.2-2.1 2.2-2.1 6.2-2.1M194 369c1.2 3.7 1.7 4.8 5 7-1.2-3.7-1.7-4.8-5-7m6 6v3h2l-1-3zm9 6 3 2 2-1zm8 0 1 2 3-1z"/><path fill="#d14a26" d="M168 3h1l.1 1.7c3 40.7 22.2 71 49.6 100.5a84 84 0 0 1 24 56.8 52 52 0 0 0 6.3 21l1.8 3.4c3.1 3.7 6.9 5.5 11.2 7.6v1a45 45 0 0 1-32.2-10.8c-6.4-6-10.6-13.3-15-20.9-12.7-22.1-31-34.4-54.4-43.6-11-4.3-16.6-12.1-21.2-22.8-3.6-9.2-4.6-18-5.2-27.9 2.5 2.5 3.5 5.2 5 8.4 8.1 16.7 22.5 27.8 37 38.6q-4-5-8.2-9.6C152 88.9 141.9 69 142.8 45c.2-4.7.5-9.6 2.2-14.1l2-1 .4 3c3.6 21.9 13.7 39 28.3 55.5l6.1 7.4L192 108q-4.7-8.5-10-16.6A201 201 0 0 1 166.9 66l-1.1-2.2a66 66 0 0 1-6.2-29.1v-3c.1-7.5 1.1-13.9 4.4-20.6l1.2-2.5z"/><path fill="#f8c468" d="M59 198c2.6-.3 2.6-.3 6 0l4.3 3.6q4.3 3.3 9 5.8l2.2 1.2q8.1 4.3 17 7.2 8.4 2.8 14.5 9.2v2h2c2.1 1.9 2.1 1.9 4 4v2h2l1 2.5q3 7.9 6.3 15.5c1.4 3.1 2.2 5.5 1.7 9l-7 2c14.4 1.1 29.2-7.4 41.6-13.9 2.4-1.1 2.4-1.1 4.4-1.1l-1-3-4-.2a26 26 0 0 1-16-6.8q5.3 1 10.6 2.6a62 62 0 0 0 25.4.4c-4.6 4-9.8 7-15.1 10l-2.7 1.5c-21.8 12.4-44.5 19.4-69.4 12.8A79 79 0 0 1 73 253c5.5 12.2 12.7 17.7 25 22.8q7 2.1 14 3.2a61 61 0 0 1-6.6 3.9 110 110 0 0 0-38.8 31.6A70 70 0 0 1 31 340a62 62 0 0 0 50-19l2.1-2q5.3-5 9.8-11a87 87 0 0 1 37.1-29l2 1-2.2 1.4c-6.6 4.2-12.3 8.6-18 14-3.6 3.6-3.6 3.6-5.8 3.6l-.8 1.8a24 24 0 0 1-4 5.4q-4.5 5-8.3 10.3C77.4 337.8 59 356.3 33 364v1a83 83 0 0 0 64-24l1.8-1.8a98 98 0 0 0 13.3-19c17-29.4 17-29.4 26.9-33.2l-1 1.3a75 75 0 0 0-18 52.7q1.5 13 6 25l-4-3-1.6 2.5q-2.7 3.9-6 7.5a41 41 0 0 0-6.4 10l-5 5-5.1 5.6-2.6 2.8c-2.3 2.6-2.3 2.6-4 5L90 403h-2v1.8c-1.5 3.4-4.3 4.3-7.5 5.8l-2 1A36 36 0 0 1 55 415c1.4-2.8 3.3-3.4 6-5l2.7-2.2C66 406 66 406 68 406v-2h2v-3l-1.7 1.3-2.2 1.7-2.2 1.7C62 407 62 407 60 407v2l-9.5 3.5-2.7 1a31 31 0 0 1-22.8.5l1-3c2.7-1.2 2.7-1.2 6.2-2.4 4.8-1.8 8.7-3.5 12.8-6.6l3.3-2.1C51 398 51 398 52 396l-4-2v-2q4.7-2 9.8-2.8a27 27 0 0 0 11.5-5C71 383 71 383 74 382v-2h2v-2h2v-3h2l.8-1.6q2.3-4.5 5.2-8.6l2.1-3.3L90 359h2v-2h2l.8-2.2c2-4.7 5.2-8.7 8.2-12.8l1.8-2.6 1.8-2.5 1.6-2.2c2.2-2.1 3.7-2.5 6.8-2.7l2 2 1-17-2 3h-2l-.6 2.4A71 71 0 0 1 90 351l-2 2-3 1-1.3 1.4c-10.4 10.1-30.9 12-44.7 12.7-4.2-.1-7.9-.9-12-2.1v-3c3-1.7 5.8-2.4 9.3-3 8.5-2 18-7.3 24.2-13.5C62 345 62 345 65 343c3.1-2.1 4.9-4 7.1-7.1l4-5c-3 .6-5.3 1.6-8 3.3-12.6 7.4-23.3 10.8-38 7.7l-2-1c.7-2 .7-2 2-4 2-.8 2-.8 4.4-1.2 13.7-3.7 22.7-14.4 31.3-25Q71 304.3 77 298l2.4-2.7q9.3-8.2 20.6-13.3-4.3-3.8-9.7-6.2c-8.3-4-16.8-11-20.3-19.8-.4-2.5-.3-4.5 0-7a22 22 0 0 1 9.8 3.9Q86.4 257 94 259v-2l-2.3-.6c-3.6-1.8-4.4-3.8-6.3-7.3l-2.1-3.9-1.1-2-5.1-9-14.7-25.7-1.4-2.4-1.2-2.1c-.8-2-.8-2-.8-6m38 61 1 2Zm2 0 1 2Zm4 2c2 2 2 2 4.4 2.2h2.7l2.8-.1 2.1-.1c-2.9-1.7-5-2.2-8.2-2.1zm16 54 1 2Zm-35 6 1 2Zm-4 4 1 2 1-2zm-3 2 2 2 1-2zm39 11-.2 2-.2 2.8-.3 2.7c-.3 2.5-.3 2.5-1.3 5.5h-2q-2.7 3-5.1 6.4l-1.4 1.8c-3.5 4.5-3.5 4.5-3.5 6.8l-1.9.8c-2.5 1.5-2.8 2.6-4.1 5.2l-5 5v2l-1.9.8c-2.5 1.4-3 2.6-4.1 5.2h-2l-3.6 3.9-2 2.2C76 393 76 393 76 395l-4 2 2 2 3-2.6q4-3.5 8.6-6.3 6.3-4 10.4-10.1v-2h2l3.4-5.6Q106 366 111 360l2-2.7c2-2.3 2-2.3 5-3.3l2 8h2q-.7-4.1-2-8c-1.5-5.2-1.7-10.6-2-16z"/><path fill="#cf4525" d="M302 257c0 3.7-1 5.3-2.8 8.5l-1.8 3.3-15.2 27.4-9 15.9-22 39c-6.7 12-13.3 23.6-27.2 27.9-5.7 1.6-11.5 2-17-.4a38 38 0 0 1-12-11.6v-2l2-.3 2.7-.4 2.6-.5c6-1.8 8.5-5.7 11.4-11l1-1.8 2.2-4 4.8-8.6 14.2-25.4 3.4-6.2c3.9-7 7.1-12.5 14.7-15.8a167 167 0 0 0 48-34"/><path fill="#ec9565" d="M146 121c31 10 52 22.4 68.3 51.8A98 98 0 0 0 233 198l1.8 1.8c10.3 10 24.5 12.6 38.2 12.4h3.2c6 0 11-.5 16.8-2.2a46 46 0 0 1-34.1 15.2l-3 .2-6.9.6 1 2c2 .4 2 .4 4.6.6l2.5.3 1.9.1v1a62 62 0 0 1-47.2-18.4q-5.4-5-11-9.4-9.4-7.7-18.5-15.6c-4-3.5-4-3.5-6.3-4.6l-2 1c-3.6.4-5.6.2-8.8-1.5-2.6-3-3-4.7-3.3-8.5a11 11 0 0 1 3.1-7c2.7-2 4-2 7.5-2 3.5 1 3.5 1 6 3 1.5 3 1.5 3 1 6.7-.1 3.3.4 4.2 2.6 6.8a175 175 0 0 0 11.9 10l7 5.5-1.2-6.2-.8-3.6c-1-3.4-2.2-4.9-5-7.2.8-2.9.8-2.9 2-6 2-1.2 2-1.2 4-2-10.4-14.7-25.1-23.6-40.8-32l-5-2.7-3-1.7-2.2-1.6v-5l-1-4-2-1z"/><path fill="#e86328" d="M360 67c3.4 1.2 5.6 2.3 8 5l3 2c.7 3.1.7 3.1 1 6l2.9-1 22.3-6.7 2.1-.7Q404.6 70 410 69c-3.8 3.2-8 5.1-12.4 7.2l-2.5 1.2-18 8.8-2.3 1.1c-5.6 2.7-5.6 2.7-7.8 2.7l-.5 1.7c-2.2 3.5-5.4 5-9 7l-2 1.2q-4 2.4-8.5 4.1l-2.5 2.6C342 109 342 109 339 109l-.4 2.3c-.6 2.5-1.3 4.4-2.6 6.7l-4-1v2h-2l-1-2a240 240 0 0 0-6.1 29c-3.4 21.6-7.5 39.4-24.9 54q-4.7 3-10 5l-2.9 1.3A57 57 0 0 1 246 201c3.7-1.2 7-1 11-.8 13.3.2 25.2-4.7 35.1-13.7 8.3-8.8 13-19.9 15.9-31.5l.6-2.5c1.6-7.2 1.8-14.5 2-21.8.6-16 .6-16 2.4-17.7l.5-5.4c.4-5.4.4-5.4 1.5-7.6l-2 1.6c-9 7.5-16 11.6-28 11.5h-2q-5.6.1-11-1.1v-1l3.3-.4A58 58 0 0 0 306 98l-3.1-.1-4-.3h-2.1A27 27 0 0 1 286 95v-1h2.4A49 49 0 0 0 321 80c3-2 3-2 6-3s3-1 4.4-2.6c2.6-2.3 5.2-2.3 8.6-2.4 2 1.4 2 1.4 3 3-6.7 4-6.7 4-9 4l-.7 1.7c-1.3 2.3-1.3 2.3-3.1 4.5-2.9 3.7-5 7.7-7.2 11.8l-1.3 2.2A61 61 0 0 0 315 132l.7-2.8 1-3.6 1-3.7 1.3-2.9c2-.8 2-.8 4-1l4-4 2-2v-6l3-1 1-2c5.5-5.2 11.6-9 18-13l5-3.2 2.2-1.4C360 84 360 84 362 81c.6-5 .3-9.5-2-14"/><path fill="#f6b56e" d="m137 287 2 1-1.5 1.6a70 70 0 0 0-17.8 47.7A105 105 0 0 0 126 366l-4-3-1.6 2.5q-2.7 3.9-6 7.5a41 41 0 0 0-6.4 10l-5 5-5.1 5.6-2.6 2.8c-2.3 2.6-2.3 2.6-4 5L90 403h-2v1.8c-1.5 3.4-4.3 4.3-7.5 5.8l-2 1A36 36 0 0 1 55 415c1.4-2.8 3.3-3.4 6-5l2.7-2.2C66 406 66 406 68 406v-2h2v-3l-1.7 1.3-2.2 1.7-2.2 1.7C62 407 62 407 60 407v2l-9.5 3.5-2.7 1a31 31 0 0 1-22.8.5l1-3c2.7-1.2 2.7-1.2 6.2-2.4 4.8-1.8 8.7-3.5 12.8-6.6l3.3-2.1C51 398 51 398 52 396l-4-2v-2q4.7-2 9.8-2.8a27 27 0 0 0 11.5-5C71 383 71 383 74 382v-2h2v-2h2v-3h2l.8-1.6q2.3-4.5 5.2-8.6l2.1-3.3L90 359h2v-2h2l.8-2.2c2-4.7 5.2-8.7 8.2-12.8l1.8-2.6 1.8-2.5 1.6-2.2c2.2-2.1 3.7-2.5 6.8-2.7l2 2 .1-2.8c.4-6.8.8-12.2 3.9-18.2v-3l-4 4c3.8-10.6 12.4-19 20-27m-21 51-.2 2-.2 2.8-.3 2.7c-.3 2.5-.3 2.5-1.3 5.5h-2q-2.7 3-5.1 6.4l-1.4 1.8c-3.5 4.5-3.5 4.5-3.5 6.8l-1.9.8c-2.5 1.5-2.8 2.6-4.1 5.2l-5 5v2l-1.9.8c-2.5 1.4-3 2.6-4.1 5.2h-2l-3.6 3.9-2 2.2C76 393 76 393 76 395l-4 2 2 2 3-2.6q4-3.5 8.6-6.3 6.3-4 10.4-10.1v-2h2l3.4-5.6Q106 366 111 360l2-2.7c2-2.3 2-2.3 5-3.3l2 8h2q-.7-4.1-2-8c-1.5-5.2-1.7-10.6-2-16z"/><path fill="#b13027" d="m234 268 1 3c-1.2 2.2-1.2 2.2-2.9 4.6-3 4.4-3 4.4-4.1 6.4h2c-.1 1.8-.1 1.8-1 4-2.8 1.6-2.8 1.6-6 3l-2.4 1.2-1.6.8v2c-1.9 1.5-1.9 1.5-4.3 3.1l-2.4 1.7C210 299 210 299 207 299v2q-7 3.7-14.6 6.5c-4.8 1.8-9 3.9-13.4 6.5h-2v2l-3 1.3-2 .9-5.4 2q-7.1 3.1-12.6 8.8c-.8 2.7-.8 2.7-1 5l-2-1c-5 2.2-8.3 6.2-12 10l-2 2-1-1c0-2.1 0-2.1.3-4.7q0-1.4.2-2.7c1-5.3 4-8.4 8-12l2.8-2.3q3.7-3.2 7.7-6.2c14-11 14-11 16-17.1a210 210 0 0 0-27 15 37 37 0 0 1 4.6-12.3l1-2 2.4-4.7h3v3l2.7-3a96 96 0 0 1 43.3-24l2-.6c4.1-1 7.7-1.6 12-1.4l-2 1v2l3.3.3c4 .8 5 1.7 7.7 4.7h2l2-5 4 1z"/><path fill="#a62f29" d="m173 260 2 1-2.3 2a130 130 0 0 0-44.7 88q-.2 8 0 16h-3l-.4-2.1q-1-4.7-2.6-9.2a57 57 0 0 1-3-14.7l-.2-3a70 70 0 0 1 19.2-50 65 65 0 0 0-11 11l-1.5 1.7a160 160 0 0 0-11.1 17.5 114 114 0 0 1-17.5 24.2A80 80 0 0 1 43 366c-10.2.2-10.2.2-13.9-2.1l3-.8A99 99 0 0 0 78 334c0 4.4-2.5 6-5.5 9-1.5 2-1.5 2-1.5 5 3.3-.6 5.3-1.8 8-3.8l1.9-1.5L83 341l2.5-1.9a51 51 0 0 0 9.3-10.3L97 326l2.1-2.6q2.4-3 4.2-6.2l1.7-3.2h2l.8-1.6q2.3-4.2 5.1-8l2.1-3c2-2.4 2-2.4 5-4.4l1-1.9c1.8-3.7 4-5.8 8-7.1l2-3 4-2.3q8.3-4.6 16.4-9.6l14.5-9 2.7-1.6 2.4-1.5z"/><path fill="#e86429" d="M168 3h1l.1 1.7c3 40.7 22.2 71 49.6 100.5a84 84 0 0 1 24 56.8c.7 8.5 2.6 16.3 8 23.1 1.3 1.9 1.3 1.9 1.3 4.9a35 35 0 0 1-7.6-4.7l-1.7-1.4c-7.1-8.1-9.5-22.6-11.7-33a96 96 0 0 0-20-40.1q-2.3-3.4-4.4-6.9c-3.4-3.8-6.4-4.3-11.3-5.3L193 98l-1-2h-2v-3h-3v-2l-3-1c-3-3.2-4.5-5.6-5-10l-3-1a61 61 0 0 1-12.8-32.9c-.2-2.1-.2-2.1-1.2-4-1.4-2.9-1.2-5.2-1.1-8.4v-3.2l.1-2.5h2l-.1-2A44 44 0 0 1 168 3"/><path fill="#b13028" d="M1 66q4.5 4.2 8.2 9.2C16.8 85 26 92.8 36 100l1.7 1.2c8.9 6.5 18.2 11.5 28.2 16.2l2.7 1.3 2.5 1.2C73 121 73 121 74 123l-3.2-1-7.8-2-2 3 7 3-2 1-1 3-2-3-4 1a482 482 0 0 0 46 20v4h3l1 4 6 1-1 3 2.2.4c3 .6 5.3 1.6 8 3L135 168c4 1.7 6.3 3.8 9.1 7q-4.2-1.6-8.3-3.6a262 262 0 0 0-31-12l-2.3-.7q-8.7-3-17.5-5.7c-30.2-9.8-59-26.5-74.2-55.5A85 85 0 0 1 1 66"/><path fill="#b03028" d="m16 130 3.9 2.6 2.5 1.6 4.9 3.5c20 14.8 46 21 69.9 25.7l14.6 3.3 2.7.7 2.5.6 2.2.5c1.8.5 1.8.5 3.8 1.5v2l-12-2v3h3v2h3l-1 4h7v2h-2c1.4 2.8 3 3 6 4l2.3 1q5.6 2 11.4 3.1l2.3.9 1 3-3.4-.8q-6.4-1.5-13.2-2.5l-2.2-.4-13.9-2.1C90.1 184 71 180.6 52 170l-3-1.6c-14-8.2-25.7-22-33-36.4z"/><path fill="#f7bd6c" d="M307 252c-.5 5.8-3 10.2-5.7 15.2l-1.4 2.6-3.9 7.2-1.7 3.1-6.6 12-1.2 2.1-2.4 4.2q-2.4 4-4.2 8.4c-1 2.4-2 3.4-3.9 5.2q-6.9 11-12.3 22.9c-1.7 3-3.5 5.4-5.7 8.1a52 52 0 0 0-6 12.3 14 14 0 0 1-7 8.7l-1 3h-2l-.9 1.8C240 371 240 371 238 374l-1.1 5a40 40 0 0 1-9.9 17l-3 1v2l-6.6 4-1.8 1a27 27 0 0 1-12.6 4l-2.5.2a40 40 0 0 1-29-10.5L169 395l-1.6-1.7c-4.7-5-8-10.4-11.4-16.3l-1.5-2.4q-2.3-4.2-4.4-8.5a72 72 0 0 0-5.3-9.5 18 18 0 0 1-4-10.4c1.8-5 5.4-7.8 9.2-11.2l2-1.8c3-2.8 5.8-5 10-6.2v-2l5-1c4.1 4.5 6.6 9 9 14.5q3.4 7.6 8 14.5l4.6 8.3q2 3.7 3.4 7.7h2l-1-6 1.8-.2 2.4-.2 2.4-.3a48 48 0 0 0 6.4-1.3v-2l2.3-2c2.9-2.9 4-5.8 5.6-9.5q2.5-5.3 5.8-10.2a19 19 0 0 0 2.3-6.3h2l.8-2.7a43 43 0 0 1 4.2-8.3l2.8-5.2a150 150 0 0 1 10.7-17c4.2-5.8 7.9-8.2 14.4-10.7A47 47 0 0 0 268 281l4.9-3.4q5.8-4.1 11.5-8.5c1.6-1.1 1.6-1.1 3.6-1.1l.8-1.8c1.4-2.5 2.8-3.8 5-5.6q3.7-3.1 7-6.5c2.2-2.1 2.2-2.1 6.2-2.1m-5 5-1.8 2a144 144 0 0 1-48 33c-8.9 4-12.7 14.5-17 22.7l-4.8 8.7a597 597 0 0 1-11.7 20.8l-1.2 2.2-2.3 4.1c-6.4 11.7-6.4 11.7-12.2 13.5l-8 1c1.8 6.5 6.7 10.7 12.4 14 8.5 2.4 15.7 1 23.6-3q4.4-3 8-7l2.7-2.9c4.2-4.8 7-10.5 10-16l5.3-9.8 1-2q4-7.3 8.4-14.5 9-15.4 17.5-31.1l7.4-13.4q5.1-9.4 10.8-18.4l.9-1.9zm-137 69-15.6 13.1-2.2 1.8-1.8 1.6c-1.8 2-2.1 2.9-2.4 5.5 1.1 2.8 1.1 2.8 2.9 6l1 1.9 5 9.3c18 33.4 18 33.4 35.6 38.7 11.5 2.7 21.6.8 31.9-5A44 44 0 0 0 234 381l-1-2-1.6 1-2.2 1.4-2 1.4c-5 2.8-10.6 3-16.2 2.2-14-4.7-20.5-15.2-27.4-27.5l-2-3.4a540 540 0 0 1-12-22.3c-2.4-4.7-2.4-4.7-4.6-5.8m29 43c1.2 3.7 1.7 4.8 5 7-1.2-3.7-1.7-4.8-5-7m6 6v3h2l-1-3zm9 6 3 2 2-1zm8 0 1 2 3-1z"/><path fill="#b03028" d="M17 18c2.5 2.5 3.2 4.8 4.4 8.1A117 117 0 0 0 65 77l-1 4-3-1-.9-2c-1.1-2-1.1-2-3.7-2.7L54 75c.6 2.9.9 3.9 3 6l.8 2.4c1.4 3.2 3.2 4.7 5.8 7l2.5 2L68 94l-1 3 1 2 3-1c1 3 1 3 .4 5l-.4 2c2 3 2 3 5.1 3.7q1.5 0 2.9.3v4l2 .8q5.2 2.2 10 5.2v2c-25.3-6.8-53-30.7-66-53a71 71 0 0 1-9.2-35.7v-2.9c0-4 0-7.5 1.2-11.4"/><path fill="#cb6136" d="m260 243-1 2-3 1 1 10q-26 9.1-52.6 15.2A122 122 0 0 0 154 299c-1-3.8-1.3-5.4.6-9l2.4-2.9 1.3-1.6 5.4-6.7c13.8-17 35.4-25 56.2-29.1l3.8-.8c5.9-1.2 11.3-2 17.3-1.9l1-2a28 28 0 0 1 18-2"/><path fill="#b03128" d="M329 161h1a124 124 0 0 1-30 88l-2 2.4c-7.6 9-17.1 16-27 22.6l-2.2 1.5c-9.2 5.9-30 18-41.1 16l-1.7-.5 1.7-1.8c3.2-4.4 5.2-9.2 7.3-14.2l2.5.2c4.2-.2 7.4-1.6 11.2-3.3l2.1-1 6.2-2.9 3-1.4a88 88 0 0 0 34-29.6h2l.8-2a31 31 0 0 1 8.2-13h2l1-3 2 4c2 0 2 0 5-1v-7l3-1c2.5-3.8 2.8-7.1 3.4-11.6l.6-2.4 2-1c.6-2.3.6-2.3 1-5.4l.5-3.3.6-3.6.5-3.5q1.6-11 2.4-22.2"/><path fill="#b03028" d="M134 69c2.5 2.5 3.5 5.2 5 8.4 8.1 16.7 22.5 27.7 37 38.6l2.4 1.8 1.6 1.2-1 2c2.4 1.9 4 3 7 4v3l2.3.8c2.6 1.2 4.6 2.3 6.7 4.2v2l2.3.8a27 27 0 0 1 6.7 4.2l-1 1 2 1.9c2 2.1 2 2.1 2 4.1l5 1 1 5h2c5 5.2 5 5.2 5 10l6 1v2l9 2 1 5h2a26 26 0 0 1 3.8 7.4 22 22 0 0 0 8.2 8.6l5 1q3.6 1.8 7 4v1a45 45 0 0 1-32.2-10.8c-6.4-6-10.6-13.3-15-20.9-12.7-22.1-31-34.4-54.4-43.6-11-4.3-16.6-12.1-21.2-22.8-3.6-9.2-4.6-18-5.2-27.9"/><path fill="#ea6427" d="M101 103q6.4 2 12.4 5.1l3.2 1.7 2.4 1.2v2l2-.2c3.9.3 6.3 1.7 9.7 3.5q7.4 4 15.4 6.8c1.9.9 1.9.9 3.9 3.9l3 1-4 1v4l2 .7c12 5 23 12.2 33 20.3l2.7 2c5.1 4 9.4 7.9 13.3 13v2l-2 1.3c-2 1.7-2 1.7-3 4.1 0 3.3 1 4.2 3 6.6q0 3.1-1 6-9-3.6-15-11a27 27 0 0 1-.8-7c-.2-2-.2-2-2.4-4.9-2.8-2.1-2.8-2.1-5.4-3.6a15 15 0 0 1-5.4-6.5l-2-1v-2l-1.9-.8C162 151 162 151 160 148l2-3h1l-3-1.3-16-7.3a280 280 0 0 1-39.7-21q-3-2-6.3-3.4v-3l4 1z"/><path fill="#e58658" d="M0 64c3.4 1.5 4.6 2.5 6 6h2l3 5a141 141 0 0 0 7.5 7.6 42 42 0 0 0 5.3 4.6L26 89v2l2.3.8c3 1.3 4 2.5 5.7 5.2C21.4 94.9 9 77.8 2 68c3.1 14.6 7.6 29 17 41l1.2 1.6c20.1 25.5 48.8 36.3 78.9 46A191 191 0 0 1 148 178l-2 1-6.2-2.6c-14.6-6-30-9.3-45.4-12.6-28.3-6-54.8-14.2-77.4-32.8 4 8.2 8.9 15.1 15 22l2.1 2.4A77 77 0 0 0 54 170l3.3 1.9c20.3 10.7 42.9 12.7 65.2 15.9 24.4 3.5 24.4 3.5 31.5 11.2l-3-.6a161 161 0 0 0-31.2-2.9c-20.6-.1-39.3-1.6-58.8-8.5v-1c5 .3 9.5.7 14.1 2.4 16.6 5.8 35.6 3.8 52.9 3.6q-7.3-1.8-14.8-2.5a143 143 0 0 1-22-3.5c-26.9-5.6-49-15.8-66.2-37.6-2-2.4-2-2.4-5-4.4v-2h-2l-.8-2.6-2.8-7.2C13 129 13 129 13 127c3.5.6 6 2 9 4l1 2 5 2 3 2v2l14 6.7a41 41 0 0 0 7 2.3l6.3 2.4Q65 153.1 72 155l3.6 1.4A95 95 0 0 0 107 162l-2.5-.8-13.4-4Q79.4 153.6 68 149l-2.3-1c-5.9-2.3-11.1-5.7-16.5-9.1-3.2-1.9-3.2-1.9-6.9-3.5a22 22 0 0 1-7-4.3l-1.7-1.6Q27.4 123.6 22 117v-2h-2l-3.1-3.4-1.7-1.9C14 108 14 108 14 106h-2c-2.8-5.1-4.7-10-6.3-15.6q-1-3-2.3-6A43 43 0 0 1 0 64m109 99v2l4-1z"/><path fill="#b03028" d="M60 185c3 1 3 1 6 3l6.7 2 3.6 1c14.3 3.3 28.8 3.4 43.4 3.5 11.1 0 21.4.8 32.3 3.5v3l-10-1c3 3 3 3 5.1 4 1.9 1 1.9 1 2.7 3.1l.2 1.9h8l1 3 6 1c-3 1-4 1-7.3 0-6-1.6-12.2-1.4-18.4-1.5-28-.4-56.8-2.1-78.3-22.5l-2-3z"/><path fill="#ec9565" d="M361 67c2.5 4.4 2.8 9.1 2 14-3.2 5.7-8.3 8-14 11.2q-7.7 4.4-14 11c-2 1.8-2 1.8-5 2.8l.2 2.8c-.2 3.5-.8 4.6-3.2 7.2l-1-1-5 5-2-1-.6 2.8-.8 3.6-.7 3.6c-.9 3-.9 3-2.9 5a70 70 0 0 1 10-41l1.5-2.7A59 59 0 0 1 341 74c-3.3-1.1-4.7-1-8 0l-2 2-2 2c-2.1-.4-2.1-.4-4-1 8.4-8.9 24.4-17.8 36-10m-19.3 14A31 31 0 0 0 329 93v2h-2c-1.7 2.3-1.7 2.3-3 5l1 3 1.5-1.5c5.5-5.2 11-8.7 17.9-12C347 88 347 88 348 85h-2l1-4c-3-1-3-1-5.3 0M322 103c-1.4 2.4-2 3.5-1.6 6.3l.6 1.7c2.1-4.6 2.1-4.6 1-8"/><path fill="#e96328" d="M205 180c3.5 1.2 4.2 2.2 6.3 5.1l1.9 2.5 1.8 2.4a59 59 0 0 0 34.4 22.7l2.6.3 3.8.4q18.9 1.8 37.2-3.4a44 44 0 0 1-32.2 15.1 66 66 0 0 1-46.6-17.3A45 45 0 0 1 203 183z"/><path fill="#f8c16b" d="M167 0c2.6-.2 2.6-.2 5 0l.1 1.9c2 26.6 2 26.6 4.9 36.1l2 1 1.4 4.6c1.3 4.7 3 8.3 5.6 12.4l1.8 3.1q3.6 6.4 7.6 12.5c2.6 4.2 2.6 4.2 2.6 6.4l1.8.7c2.6 1.5 3.8 3 5.5 5.4l1.8 2.4L209 89l3.6 4.8 1.6 2q4 4.6 8.3 8.7A65 65 0 0 1 240 131l1 2.1c3 6 3.3 13 3.8 19.5a17 17 0 0 0 1.2 5.4l.3 6.1c.8 11.4 5.5 18.3 14 25.8l3.7 3.1-2 2a34 34 0 0 1-19-23q-1.1-6.6-1.6-13.4c-2-24.3-10.4-38.7-26.6-56.1-25.9-28-44.4-59-46.8-97.5l-2.4 5-1.3 3a64 64 0 0 0 .3 45.6q2.4 6 5.5 11.5c.9 1.9.9 1.9.9 4.9l-3-1-2-4-3-1c-1-3-1-3 0-6l-3-5a68 68 0 0 1 1.3-48.7c1.7-3.4 3.3-6.4 5.7-9.3"/><path fill="#af3128" d="m133 278-3 1.6c-15 8.1-28.2 17.6-38.7 31.1C78.8 326.7 64.4 338 44 341H31l-1-2 1.8-.4c16-4.2 28-16.2 38-28.9C79 298.2 79 298.2 85 294l2 1-5 5h-2l-.7 1.6c-1.4 2.6-3.2 4.6-5 6.8-1.9 2.3-3 5-4.3 7.6 6.4-1.8 10.9-6.9 15.4-11.4 8.7-8.7 33.8-31.2 47.6-26.6"/><path fill="#ea8e5b" d="M16 16h3l1.2 3a79 79 0 0 0 12.9 22.4A25 25 0 0 1 37 49h2c3 4.4 3 4.4 3 7l3 1 5 5 8.8 7.2L61 71l-3 2C40.8 57.3 26.4 42 18 20c-4 7.8-1.6 22.2.6 30.4C27 75.7 44.3 92.8 66 107l1.8 1.2c8.6 5.6 17.8 10.2 27 14.7 18.3 9 35.9 18.3 50.2 33.1l-1 2-1.6-1.2A242 242 0 0 0 92 130.2 249 249 0 0 1 34.8 100L32 98l3-1c2.3 1.2 2.3 1.2 5 3l3 2 3 2a199 199 0 0 0 47 22c-1.8-1.8-4.6-2.2-7-3v-2l-2.2-.9L76 117v-2l-2.6-.8a39 39 0 0 1-11-6.3A372 372 0 0 1 37 88v-2h-2c-1.5-2-1.5-2-3.2-5l-6.9-10.6-1.4-2.2q-1.4-2.3-3.2-4.4c-3.8-5.1-5-9-5.2-15.5C15 46 15 46 14 44q-.6-4.5-.7-9l-.3-2.6c-.3-6 .7-10.8 3-16.4"/><path fill="#ea6528" d="M340 72c1.8 1.5 1.8 1.5 3 3-6.7 4-6.7 4-9 4l-.7 1.7c-1.3 2.3-1.3 2.3-3.1 4.5-2.9 3.7-5 7.7-7.2 11.8l-1.3 2.2c-6.4 11.4-7 24.5-7.3 37.3-.2 5.3-.8 10.1-2 15.3q-.7 3.7-.6 7.3c-.5 4.8-2.2 7.5-5.3 11.1a25 25 0 0 0-3.5 5.8l-2-2 1-2c6.4-14.3 8.4-28.6 8.8-44.2.4-13 .4-13 2.2-14.8l.5-5.4c.4-5.4.4-5.4 1.5-7.6l-2 1.6c-9 7.5-16 11.6-28 11.5h-2q-5.6.1-11-1.1v-1l3.3-.4A58 58 0 0 0 306 98l-3.1-.1-4-.3h-2.1A27 27 0 0 1 286 95v-1h2.4A49 49 0 0 0 321 80c3-2 3-2 6-3s4-1.7 6-4c2.5-1.3 4.2-1.3 7-1"/><path fill="#d14925" d="M81 222c11.2 2.7 16.1 9.5 22 19 4.8-1.8 4.8-1.8 6.5-3.6 2-1.9 3.8-2 6.5-2.4l4.9 9.3 1.4 2.6 1.3 2.6 1.3 2.3 3.1 6.2c-9.9 3-21.5 2.9-31.2-1-5.8-3.3-8.9-9.5-12.2-15.2l-1-1.8a15 15 0 0 1-2.6-9l-2-2h2z"/><path fill="#cb3722" d="M156 89c3 2.8 5.4 5.2 7 9l3-1 1.3 1.4c1.7 1.6 1.7 1.6 4.7 2.6l1 1.9c1.3 2.6 2.6 3.3 5.1 4.7l3.9 2.4v2l3 1 2 2 2 .9c2 1.1 2 1.1 2.8 3.2l.2 1.9h4c2 1.7 2 1.7 3.8 3.9l1.8 2.2c1.4 1.9 1.4 1.9 1.4 3.9h2l2 3 2.4 1.4c3 1.8 4.5 3.9 6.6 6.6h2v3h4v2l2.2.7c4.3 2 7 4.6 9 9l.8 3.3.8 2.5c2.3 7.1 2.3 7.1 1.2 10.5l-1-5-2.2.1c-2.9-.1-4.4-.7-6.8-2.1v-2l-6-1-.8-3.4-1.2-3.6-3-1v-2h-2l-.7-2.4-1.3-2.6-2-.5-2-.5-2-5-3-1-5-5-2-1v-2l-1.7-.8q-3.8-1.9-7.3-4.2v-3l-1.7-.4q-3.7-1-7.3-2.6l2-3-1.7-1.8q-7.4-8.1-14.3-16.7l-5-6c-2-2.5-2-2.5-2-5.5"/><path fill="#e86428" d="M302 257c0 3.7-1 5.3-2.8 8.5l-1.8 3.3-15.2 27.3-9.7 17.3-2 3.4-4.5 8.2c-1-3-1-3-1-6l-3-1-1-2-2.4.2-2.6-.2-2-3q4.8-10.2 10.7-19.7 1.7-3 2.9-6.2c2.4-5.2 7-7.5 11.8-10.5 8.4-5.5 15.5-12.5 22.6-19.6"/><path fill="#b03028" d="M221 340c1 3 1 3-.2 6q-1 1.4-1.7 3.2l-1.8 3.3-1.3 2.5h-2l-1 9c5.6 1.5 5.6 1.5 9 1 3.3-2.6 5.6-5.7 8-9 3.5-4.8 3.5-4.8 6.5-5.9a16 16 0 0 1 6.5.9v2h2v-3l1.8-.1c3.3-1.3 4.4-3.9 6.2-6.9 1 3 1 3 .3 5l-4.1 7-1.5 2.7c-6.4 10.6-13.5 18.4-25.7 21.9-6 1.3-11.6 1-17-2.1q-5.8-4.6-10-10.5v-2l2-.3 2.7-.4 2.6-.5c6.2-1.9 9-6.3 11.8-11.7l2-3.7 1.9-3.4z"/><path fill="#d34a25" d="M193 209c9 3 16.7 6.3 21.2 15a21 21 0 0 1 .7 14.8c-3.2 5.4-3.2 5.4-6.9 7.2q-5.6-.5-11-2l-.7-3.4c-1.3-3.6-1.3-3.6-3.4-5l-1.9-.6h2v-3l-1.8-.2c-3-1.1-3.8-3-5.2-5.8l-2 1c-1.1-4.7-1.1-4.7 0-7l-4-2c0-3 0-3 2-5l-1-2c3.7-3.8 7.2-3.3 12-2"/><path fill="#e98654" d="m130 279 2 1-2.2 1.4c-6.6 4.2-12.3 8.6-18 14-3.6 3.6-3.6 3.6-5.8 3.6l-.8 1.8a24 24 0 0 1-4 5.4q-4.5 5-8.3 10.3C77.4 337.8 59 356.3 33 364v1a83 83 0 0 0 64-24l2-2c5.4-5.5 9.2-12 13-18.6 2.8-4.9 5.5-8 10-11.4l-1 6h-2l-1 2-2 3h-2l-.6 2.4A71 71 0 0 1 90 351l-2 2-3 1-1.3 1.4c-10.4 10.1-30.9 12-44.7 12.7-4.2-.1-7.9-.9-12-2.1v-3c3-1.7 5.8-2.4 9.3-3 8.5-2 18-7.3 24.2-13.5C62 345 62 345 65 343c3.1-2.1 4.9-4 7.1-7.1l4-5c-3 .6-5.3 1.6-8 3.3-12.6 7.4-23.3 10.8-38 7.7l-2-1c.7-2 .7-2 2-4 2-.8 2-.8 4.6-1.4a35 35 0 0 0 12.6-6.4C49 328 49 328 51 328c-1.7 5-6.5 6.7-11 9q-4.5 1.8-9 3a62 62 0 0 0 50-19l2.1-2q5.3-5 9.8-11a87 87 0 0 1 37.1-29m-46 42 1 2Zm-4 4 1 2 1-2zm-3 2 2 2 1-2z"/><path fill="#ca3b24" d="M112 336h1c1.2 3.8 1.6 7 1 11-2.7 4.3-6 7.8-9.5 11.4q-3.1 3.4-5.9 7a652 652 0 0 1-19.2 22.4c-11.7 13.4-24.1 24.3-42.6 26.1-3.2.3-3.2.3-5.8.1l-2-2 2.9-1A66 66 0 0 0 55 398v-2l-5-2v-1l2.3-.3c13.5-2 22.1-7.5 30.3-18.4l1.5-2.1 3.4-4.5 1.7-2.3 9.2-11.9 3.3-4.3 1.6-2 3.6-4.7 2-2.5 1.7-2.3z"/><path fill="#f5ac6c" d="M255 290a23 23 0 0 1-5.9 4.7 21 21 0 0 0-6.9 8.5l-1 1.9-8.1 15.2a598 598 0 0 1-13.6 24.3c-9.6 17.6-9.6 17.6-16.5 20.4-2.1.2-2.1.2-4.2.1l-3.8-.1c8.4 12 8.4 12 16 14a37 37 0 0 0 20-4l5-2v4h-2l-.6 1.8a18 18 0 0 1-10.3 6.8c-8 1.6-13.7.1-21-3.3a72 72 0 0 1-19.6-24.9l-2-3.4q-7.5-13.4-14.5-27-9.7 7.2-19 15l-1.9 1.5c-1.1 1.5-1.1 1.5-.9 3.7a40 40 0 0 0 4 9l1.8 3.4 10 18.4-2 2c-3-3.4-4.8-6.5-6.4-10.7-2-5-4.2-9-7.3-13.3-2-3.2-3.3-6-3.4-9.8 1.7-5 5.3-7.8 9.1-11.2l2-1.8c3-2.8 5.8-5 10-6.2v-2l5-1c4.1 4.5 6.6 9 9 14.5q3.4 7.6 8 14.5l4.6 8.3q2 3.7 3.4 7.7h2l-1-6 1.8-.2 2.4-.2 2.4-.3a48 48 0 0 0 6.4-1.3v-2l2.3-2c2.9-2.9 4-5.8 5.6-9.5q2.5-5.3 5.8-10.2a19 19 0 0 0 2.3-6.3h2l.8-2.7a43 43 0 0 1 4.2-8.3l2.8-5.2a150 150 0 0 1 10.7-17c6.9-9.7 6.9-9.7 12.5-7.8m-61 79c1.2 3.7 1.7 4.8 5 7-1.2-3.7-1.7-4.8-5-7m6 6v3h2l-1-3zm9 6 3 2 2-1zm8 0 1 2 3-1z"/><path fill="#cf4826" d="M308 167h1l2 8 1-1.7 1.4-2.3 1.3-2.2 1.3-1.8h2a51 51 0 0 1-20 33q-4.8 3-10 5l-2.9 1.3A57 57 0 0 1 246 201c3.7-1.2 7-1 11-.8a49 49 0 0 0 41.9-22.2l2.1-3h2l3-5z"/><path fill="#e76429" d="m178.8 251.4 3.2.6 1-1 5-.6 2.8-.2 2.2-.2c-4.6 3.7-9.8 6.2-15 9l-2.4 1.3c-5 2.8-5 2.8-7.7 2.4q-3.1-1-5.9-2.7l-1-3 4-2-6 1v2l-1.6.8-2.2 1-2.2 1c-2 1.2-2 1.2-3.4 2.6-8.9 8.8-23.8 10.7-35.6 11-13.8-.4-27.9-3.3-38-13.4-2-2.7-3-4.5-3-8a44 44 0 0 1 8 3.8 72 72 0 0 0 55.2 6.4c7.3-2.3 15-4.7 21.4-9 7.5-4.8 12.7-4.3 21.2-2.8"/><path fill="#9c312a" d="M225 284c0 3 0 3-1.9 5.2-2.1 1.8-2.1 1.8-4.1 1.8v2c-1.9 1.5-1.9 1.5-4.3 3.1l-2.4 1.7C210 299 210 299 207 299v2q-7 3.7-14.6 6.5c-4.8 1.8-9 3.9-13.4 6.5h-2v2l-3 1.3-2 .9-5.4 2q-7.1 3.1-12.6 8.8c-.8 2.7-.8 2.7-1 5l-2-1c-5 2.2-8.3 6.2-12 10l-2 2-1-1c0-2.1 0-2.1.3-4.7q0-1.4.2-2.7c1-5.3 4-8.4 8-12l2.8-2.3q3.7-3.2 7.7-6.2c6.3-5 12.6-10.4 17-17.1 3.2 1.4 4 2 6 5l-5-1-1 5c6.6.3 6.6.3 10-2l2.4.5c3.2.6 4.4 0 7.3-1.3l2.7-1.3 2.8-1.4 2.8-1.4c9.4-4.6 17.2-10.2 25-17.1"/><path fill="#ec9565" d="m63 202 1.4.8q14.6 8.4 30 14.8A50 50 0 0 1 116 234c-2.2 2.2-4.4 3.4-7 5l-2.1 1.8-1.9 1.2c-3.9-1.3-4.6-3-6.8-6.2-4.6-6.5-8.3-10.7-16.2-12.8-.7 3.7-1.2 6.4 0 10l-2 1-11.5-20.6-1.9-3.4a68 68 0 0 1-3.6-8"/><path fill="#e9652a" d="m260 243-1 2-3 1 1 10c-38.3 13.1-38.3 13.1-44 11l3-1v-2l-2-1 1-2-2-1a10 10 0 0 1 4-7c2-.7 2-.7 4.4-1.2l2.6-.5 2.7-.5 2.7-.5 6.6-1.3v-1l2.4-.4 2.6-.6 1-2a28 28 0 0 1 18-2"/><path fill="#ed9666" d="M312 193a9 9 0 0 1 1 4q-1.4 3.8-3.3 7.4l-1.1 2.1A107 107 0 0 1 257 255q-1.4-4.4-2-9l4-2h-5v-3l2.9-1.1A111 111 0 0 0 290 221l2.6-2a73 73 0 0 0 19.4-26"/><path fill="#d24925" d="M231 326c2.9 0 5.2.4 8 1l6 1-9 18.1-1.8 3.8c-2.8 6.3-6.7 12-12.2 16.1-3.3.5-5.9 0-9-1-1.2-4-.8-6.2 1-10h2q0-1 .3-2a25 25 0 0 1 3.8-8.3c.9-1.7.9-1.7 1.5-4.5l.4-2.2 3-2 1-3h2l.4-1.8c.6-2.2.6-2.2 2.6-5.2"/><path fill="#cc3722" d="M54 75h5c2 2 2 2 2 5l4 1-2 4h3v2l3 1c1.6 2.6 2 3.9 2 7 2 1.7 2 1.7 5 3.6l3 2 3.4 2.2 3.3 2.1 12 7.8 2.6 1.6 2.2 1.3 1.5 1.4v4h2v2c3 2 5.5 3.4 9 4l1 4c-4.3 1.4-6.8 1-10.7-1l-5.1-2.7-2.7-1.4c-6.4-3.5-6.4-3.5-7.5-6.9-2.5-1.5-2.5-1.5-5.5-3s-3-1.5-5.5-3l-1-3-3-1c-3-1-3-1-4.4-2.9-.7-2.4-.4-3.7.4-6.1h-4l-1-4h2l-2.5-2.4C63 91 63 91 63 89l-1.8-.7A13 13 0 0 1 56 83v-2l-2-2z"/><path fill="#f6b470" d="M179 264a16 16 0 0 1-6.4 7.4A83 83 0 0 0 145 313l1.9-1.5a91 91 0 0 1 17.2-10.6l2-.9 4.9-2 2 1-9 10-1.7 1.8c-4.3 4.6-9.3 8.4-14.3 12.3-6.2 4.7-9.9 8-11 15.9v7h-3c-.1-7.7-.1-7.7 1-10v-7c-5.1 5.1-4.4 14.3-4.6 21q-.1 9-1.4 18l-2-1a137 137 0 0 1 25.6-84.6c3-4.3 5.1-6.1 10.4-7.4l1-2 4-2 7-5.5c2-1.5 2-1.5 4-1.5m-18 13q-6.3 4.4-10 11v2c3.7-1.5 5.4-3.5 7.8-6.6l1.8-2.5 1.4-1.9zm-15 20c-2.2 2.2-3 4.3-4.2 7q-1 2.8-2.4 5.3a59 59 0 0 0-3 11.4L135 327l2 1c2.6-1.2 2.6-1.2 5-3l1-3 2.3-.3a13 13 0 0 0 6.5-3.8l2-1.9 2-2 2.1-1.9c3.7-3.5 3.7-3.5 5.1-5.1v-2c-4.2.6-7 2-10.5 4.4L142 316l1.1-3.6 1.5-4.8.7-2.4.7-2.3.7-2.1c.3-1.8.3-1.8-.7-3.8"/><path fill="#ac3229" d="M115 357h2c1.4 3.1 2.1 4.7 2 8q-2.7 3.9-6.2 7-4.7 5-8.6 10.8c-10 13.5-20.9 27.6-38.2 31.2-3.6.2-3.6.2-6 0q3.6-3.7 7.6-7.1 5-4.4 9.5-9A45 45 0 0 1 89 389c2.5-2.2 2.5-2.2 5-5l1.5-1.6c4.7-5 8.5-10.6 12.3-16.3q3.3-4.8 7.2-9.1"/><path fill="#992f2a" d="m314 226 1 2c-3.5 7.9-9.4 14.5-15 21l-2 2.4c-7.7 9-17.1 16-27 22.6l-2.2 1.5c-9.2 5.9-30 18-41.1 16l-1.7-.5 1.7-1.8c3.2-4.4 5.2-9.2 7.3-14.2l8.9 1c3.6 0 5.1-1 8.1-3l7-2 2.7-.7c2.4-.3 4 0 6.3.7l-1-5c3.3-1.8 4.6-2.1 8.3-1.1l2.7 1.1 1.8-2.4c2-2.4 3.3-3.3 6.2-4.6l1-2 3-1q4.2-3.9 7.7-8.3l2.3-2.7h2l1-4h2l.8-1.6 4.2-8.4h2z"/><path fill="#982f2a" d="m16 130 3.9 2.6 2.5 1.6 4.9 3.5C45 150.8 67.9 157 89 162v1l-19-1 3-1v-2l-3.5-.4-2.2-.3L57 157l-3.9-.3-3.1-.7-.9-2c-1.1-2-1.1-2-3.5-2.8l-2.7-.4-2.8-.5-2.1-.3 2-1v-2l-5 1-1-3c-2-.7-2-.7-4-1v5h2l3.6 4.5c1.9 2 4 3.2 6.4 4.5l1 2c2.7 1.7 5 3 8 4v3l7 1v2a27 27 0 0 0 10.3 3.1l3.2.5 2.5.4-2 2 2 .4 2.4.5 2.5.6c2.1.5 2.1.5 3.1 1.5l8.5.6 2.5.4 1 2c3 .7 3 .7 6.8 1.3l2.1.3 11 1.7c11.4 1.8 11.4 1.8 16.4 1.7 3.7 0 5.9.5 9.2 2l2.6 1.1 1.9.9v2l-3.4-.8q-6.4-1.5-13.2-2.5l-2.2-.4-13.9-2.1C90.1 184 71 180.6 52 170l-3-1.6c-14-8.2-25.7-22-33-36.4z"/><path fill="#e96529" d="m329 112 1 2h2l1 3-1 2h-2l-1-2c-4 14.1-6.2 28.6-8.5 43q-.6 3.6-1.5 7h-3l-.7 2.3c-1.4 2.9-3 4.5-5.3 6.7-2-5.8-.8-11 .6-16.9.4-2.1.4-2.1.4-5 0-4.5 1-8.7 2-13.1l.4-2.2Q315 132 317 125l.9-3.4c1.2-2.6 1.2-2.6 3.2-3.4l2-.2 4-4z"/><path fill="#eb6528" d="m186 385.2 3.8 3.2c7.7 5.6 16.1 5.6 25.2 4.6q4.3-1.5 8-4c2-1 2-1 5-1a40 40 0 0 1-22 15 41 41 0 0 1-33-9v-2h-2v-3l-2-1c1-2 1-2 4.1-3.1 9-2 9-2 12.9.3"/><path fill="#eb8f5b" d="m117 353 2 1q.5 3 .7 6.2l.3 1.8 2 1a69 69 0 0 1-7.6 10 41 41 0 0 0-6.4 10l-5 5-5.1 5.6-2.6 2.8c-2.3 2.6-2.3 2.6-4 5L90 403h-2v1.8c-1.5 3.4-4.3 4.3-7.5 5.8l-2 1A36 36 0 0 1 55 415c1.4-2.8 3.3-3.4 6-5l2.7-2.2C66 406 66 406 68 406v-2h2v-3l-1.7 1.3-2.2 1.7-2.2 1.7C62 407 62 407 60 407v2l-9.5 3.5-2.7 1a31 31 0 0 1-22.8.5l1-3 2.1 1c8.4 3 18-.2 25.9-3.5 4.5-2.3 8.2-5.2 12-8.5l1.9-1.5Q74 393.3 79 387l3 1-2.8 3.3-1.6 1.9L73 398l1.4-1.1q5.5-4.2 11.3-7.9c4.5-3 7.9-6.1 10.3-11h2l.7-2.6c1.6-4 3.8-6.7 6.7-10l2.9-3.3 1.4-1.6 3.5-4.3c1.8-2.2 1.8-2.2 3.8-3.2m-2 4q-2.7 3-5.1 6.3l-1.5 2q-5.4 7-10.6 14.3c-5.5 7.5-5.5 7.5-9.2 10l-1.7 1.2-4.2 2.4c-4.4 3-7.8 6.8-11.4 10.6-3.6 3.6-7 6.5-11.3 9.2v1c11.9 0 21-5.3 29.5-13.4a253 253 0 0 0 21.4-26.2q2.9-4.2 6.5-7.6c1.6-1.8 1.6-1.8 1.6-4l-.7-2-1.3-3.8z"/><path fill="#e98f5f" d="M57 184c3 2 3 2 4.8 4.3 2.5 3 5.2 5 8.5 7.1l1.8 1.2c17 10.4 36.3 13.2 55.9 13.6h2.1l8.6.2c17.5.2 17.5.2 25.3 3.6l1 2-3.3.3q-19.4 2-38.7 4.7c9.8 5.4 18 7.4 29.1 7.2h2.8q11.6-.1 23.1-1.2c-7.6 8.8-22.3 9.1-33 10l1-3h11v-2h-3.5c-12.2-.4-23.7-1.9-33.5-10v-2h-2v-2l2.1-.2 9.7-.7 3.3-.3 3.3-.3 3-.2q3.4-.4 6.6-1.3a68 68 0 0 1 8 0v-2h-3.2l-17.4.2a116 116 0 0 1-44.6-5.9l-2.8-1c-19.2-7.5-19.2-7.5-24-13.3v-2l-3-1c-2-3-2-3-2-6"/><path fill="#fac473" d="M357 74c2.4 1.5 2.4 1.5 4 3 .1 3.2.1 5-1 8-3 2.9-6.4 4.9-10 7-11.1 6.8-11.1 6.8-14 10.4-2 2.6-2 2.6-4.3 3.5l-1.7.1.2 2.8c-.2 3.5-.8 4.6-3.2 7.2l-1-1-5 5-2-1-.6 2.8-.8 3.6-.7 3.6c-.9 3-.9 3-2.9 5a71 71 0 0 1 2-23l3-2v2h2l.3-2.2c.9-3.4 2.3-5.3 4.7-7.8h2l.6-1.7c2-3.2 4.5-4.5 7.6-6.4l3.4-2.1q4.5-2.4 9.4-3.8v-3h7l-1-6h-5l-2 2-4-2a16 16 0 0 1 13-4"/><path fill="#99302a" d="m135 287 2 1-2 2.1c-8.4 8.7-14.6 18-20.6 28.3-5.9 10-12 18.5-20.4 26.6l-1.8 1.8c-15 14.2-36.4 19.4-56.4 19.5A14 14 0 0 1 29 364l3-.8c13.7-3.9 25-10 36-19.2 0 3 0 3-1.2 4.5-2.1 1.8-4.4 3-6.8 4.5l-7 4.7c-2 1.3-2 1.3-4 2.3l10 1 1-3c4.7-3 9.4-4.6 15-4l1-5 12-1v-5l2.2-.2c3.6-1 5.2-3 7.8-5.8h2l.8-2.2a35 35 0 0 1 5.1-8.2c2.9-3.8 5-7.4 7.1-11.6l4.4-6.4a178 178 0 0 0 7.5-11.4l2.1-3.2h2l1-3z"/><path fill="#972e2a" d="m105 293 2 1-2.3 2.3q-7.3 6.9-13.6 14.6C78.8 326.7 64.3 338 44 341H31l-1-2 1.8-.4c15.3-4 27.5-15.5 37.2-27.6 0 4.3-2.5 6-5.3 9-6.2 6.4-6.2 6.4-8.7 10l1.9-1 2.5-1.5 2.4-1.4C64 325 64 325 66 325v-2q3.6.9 7 2l.3-2.2c.9-3.4 2-4.7 4.7-6.8h3c3.1-1 4.6-2.6 6.6-5.1L90 308h2l.8-1.8c2.9-5.4 7.3-9.6 12.2-13.2"/><path fill="#9a312b" d="M1 66q4.5 4.2 8.2 9.2C16 84 24.2 91.2 33 98c-6 0-11-5.8-15-9.9l-4-4-2-2L7 77c.5 6 1.7 10.4 4.3 15.8l1 2A29 29 0 0 0 19 104l1.8 3.8A35 35 0 0 0 36 123l3 3 2 1v2h2l3 3 5 3.1 2.5 1.6A21 21 0 0 0 60 139v2l16 4-1 3 14 3v2l1.8.3q8.8 1.7 17.4 4.8l6.9 1.8c4.3 1 8.2 3 12.2 4.8l7.6 3.3c4 1.7 6.3 3.8 9.1 7q-4.2-1.6-8.3-3.6a262 262 0 0 0-31-12l-2.3-.7q-8.7-3-17.5-5.7c-30.2-9.8-59-26.5-74.2-55.5C6 87.8 1.7 77 1 66"/><path fill="#ea8b59" d="M0 64c3.4 1.5 4.6 2.5 6 6h2l3 5a141 141 0 0 0 7.5 7.6 42 42 0 0 0 5.3 4.6L26 89v2l2.3.8c3 1.3 4 2.5 5.7 5.2C21.4 94.9 9 77.8 2 68c3.1 14.6 7.6 29 17 41l1.2 1.6C43.4 140 78.5 150.2 113 161v2q-9.3-1.7-18.3-4.7l-5.8-1.8Q78.3 153.3 68 149l-2.3-1c-5.9-2.3-11.1-5.7-16.5-9.1-3.2-1.9-3.2-1.9-6.9-3.5a22 22 0 0 1-7-4.3l-1.7-1.6Q27.4 123.6 22 117v-2h-2l-3.1-3.4-1.7-1.9C14 108 14 108 14 106h-2c-2.8-5.1-4.7-10-6.3-15.6q-1-3-2.3-6A43 43 0 0 1 0 64"/><path fill="#ae3028" d="m165 216-2 2v6l14 2v1q-12.3 2.3-24.8 2.3h-2.6a47 47 0 0 1-23.2-5.4l-3-1.7-2.4-1.2v-1l3.7-.4c15-1.5 15-1.5 22.2-2.7q9-1.3 18.1-.9"/><path fill="#ed9666" d="M182 198c2.3 1.9 2.3 1.9 4 4v2l3.3.3q14.4 1.6 24.7 11.7c5.4 7 6.7 13.2 6 22-1 3.6-1 3.6-3 6-3.7.9-3.7.9-7 1l2-2.5c2.8-4.4 3.6-8.7 2.5-13.8-1.7-5.8-4-10.2-9.3-13.4l-3-1.5-3.1-1.5c-9.2-4-9.2-4-14.1-3.3l-2 1.6c-2 1.4-2 1.4-5 1.3-3-.9-3-.9-5-2.6-1.4-3.2-1-5 0-8.3 2.7-3 5-3.7 9-3"/><path fill="#cc3822" d="M322 182c2 1.2 2 1.2 4 3 1.1 5.4.1 11-2 16h-1l-.3 2c-.9 5.4-1.7 9-5.7 13l-2-1 .8 2.2c.2 2.8.2 2.8-2.2 5.6L311 225l-3-5-1 2h-2l-1 3c-1-2-1-2-.4-3.8l1-2.1 1-2.4 1.2-2.4c6.2-13.5 6.2-13.5 6.8-20.7l.3-2.6.1-2 5-2v-3h3z"/><path fill="#f8bb79" d="M32 97c4.3.5 7 2 10.4 4.6q8.1 5.5 17 9.7 5.3 2.6 10.5 5.5A86 86 0 0 0 84 123l2.5.8L93 126v2l2 .6q7 2 14 4.4l1-2c13 6.8 24.7 14.4 35 25l-1 2-1.6-1.2A242 242 0 0 0 92 130.2 250 250 0 0 1 39 103l-2.3-1.6Q34.3 99.8 32 98z"/><path fill="#d04926" d="m189 263 2 1-1 3h-2a36 36 0 0 0-1 8l-3 1-1 3c-2 1.3-2 1.3-4.8 2.6A130 130 0 0 0 154 299c-1-3.8-1.3-5.4.6-9l2.4-2.9 1.2-1.5 3.8-4.6 2-2.5c6-6.9 6-6.9 10.7-8.3 3.5-1.3 6.3-3 9.5-5 1.8-1.2 1.8-1.2 4.8-2.2"/><path fill="#982f2a" d="M60 185c3 1 3 1 6 3l6.7 2 3.6 1c14.5 3.4 29.3 3.4 44.2 3.5l10.4.2c4.1 0 6.3.4 10.1 2.3H88v-2h-3q-6 0-12-1a57 57 0 0 0 24.4 8.5c3 .6 3.5 1.4 5.6 3.5 2.6.5 2.6.5 5.6.6 5.2.3 5.2.3 7.4 1.4a172 172 0 0 0 15.1.6l14.9.4v1c-26.3 3.7-55.8.5-78-15.1a37 37 0 0 1-9-8.9z"/><path fill="#ec925d" d="m330 183 2 2c-.6 4.7-1.9 9.4-3 14l-.6 2.8c-3 12.7-9.6 24.2-16.4 35.2l-1.3 2c-1 1.8-1 1.8-2.7 4h-2l-.7 1.6q-2.8 4.6-6.7 8.5l-1.4 1.7a21 21 0 0 1-8.2 6.2v2l-5.4 4c-5.5 3.8-5.5 3.8-6.6 6l-4.6 2.3q-5.9 2.9-11.3 6.5c-5.4 3-11.3 5.1-17.1 7.3l-2 .7a49 49 0 0 1-20 4.2l2-4h2l.9-1.7 3.1-6.3-3 1q2.5-5 5.6-9.7l2-3 1.4-2.3c1 2 1 2 .4 4.3-5.6 15-5.6 15-9.4 18.7a132 132 0 0 0 81-52.8 129 129 0 0 0 19.3-48.3c.6-2.6 1.4-4.6 2.7-6.9"/><path fill="#f6b46f" d="M255 290a23 23 0 0 1-5.9 4.7 21 21 0 0 0-6.9 8.5l-1 1.9-8.1 15.2a598 598 0 0 1-13.6 24.3c-9.6 17.6-9.6 17.6-16.5 20.4-2.1.2-2.1.2-4.2.1l-3.8-.1c8.4 12 8.4 12 16 14q8.5.4 17-1v2c-4.2 2.8-6.1 1.8-11 1l2 1v2l-2.4-.5c-2.6-.5-2.6-.5-4.6-.5-4.9-.4-7.4-1.6-11-5l-1-2-1.9-2.3c-5.1-6.5-5.1-6.5-5.1-10.7l1.8-.2 2.4-.2 2.4-.3a48 48 0 0 0 6.4-1.3v-2l2.3-2c2.9-2.9 4-5.8 5.6-9.5q2.5-5.3 5.8-10.2a19 19 0 0 0 2.3-6.3h2l.8-2.7a43 43 0 0 1 4.2-8.3l2.8-5.2Q236 307 241 300l1.5-2.2c6.9-9.7 6.9-9.7 12.5-7.8"/><path fill="#f8bd63" d="m225 246 4.2-.4 3.8-.6 1 3-2.4.5c-37.2 7-37.2 7-52.6 17.5l1-5q-11.2 6.6-20 16l-2-1a100 100 0 0 1 49.5-30.6 28 28 0 0 1 17.5.6m-17.7 2-2.4.6-1.9.4v2q6-.8 12-2v-2c-2.8 0-5 .4-7.7 1m-12.3 4-1 2 6-1v-1zm-12 6-2 2 2 1 3-3z"/><path fill="#e48054" d="M26 137h5v2l14 6.7a41 41 0 0 0 7 2.3l6.3 2.4Q65 153.1 72 155l3.6 1.4q6.5 2.4 13.2 3.7l2.4.5q8.8 2 17.8 2.4v2l3-1 1-2a57 57 0 0 1 15.2 5c7.1 3 13.4 6.7 19.8 11l-2 1-6.2-2.6c-14.6-6-30-9.3-45.4-12.6C39.7 152.1 39.7 152.1 26 137"/><path fill="#f6bb69" d="m336 65 2 1q-4.7 4.9-10 9c-1.8 1.6-1.8 1.6-3 3v2q-.9 0-1.7.3c-3 .9-4.5 2.4-6.8 4.5-8.6 7-17.5 10-28.5 10.2a42 42 0 0 0 11.2 1.6h2.3l5.5.4a38 38 0 0 1-25 13.2l-2-.2c2.4-3.7 3.8-3.8 8-5 3.4-1.1 6-2 9-4l-2.2-.4c-6.7-1.6-10-2.8-13.8-8.6 3.4-1 6.5-1.1 10-1.2 13.2-1 21.3-7.2 31-15.8l5.5-4.5 2.3-2q2.9-2.1 6.2-3.5"/><path fill="#cb6237" d="M81 222c10.3 2.5 15.2 8.5 21 17l-1 2h-3l-.8 1.8c-1.2 2.2-1.2 2.2-2.8 3.8C93 248 93 248 93 251h-3l-4.5-7.7-1.3-2.3-1.2-2-1.2-2c-.8-2-.8-2-.8-6l-2-2h2z"/><path fill="#f6bb71" d="m71 251 3 1 .3 2.7c1.4 6.5 6 11.4 11.4 15.2q4 2.2 8.3 4.1l2.1 1a75 75 0 0 0 15.9 4 61 61 0 0 1-6.6 3.9 111 111 0 0 0-38.9 31.7Q60 322.6 52 329c0-3 0-3 1.2-4.4L55 323q4.5-4.4 8.5-9.3 6.5-8 13.6-15.7l2.4-2.7q9.3-8.2 20.6-13.3-4.3-3.8-9.7-6.2c-8.3-4-16.9-11-20.3-19.8.2-3 .2-3 1-5"/><path fill="#cb3722" d="m32 104 3 1 3-1 5 4c2.3.8 2.3.8 4 1v2h2l1-2 9.2 4.8 2.6 1.4Q68 118.4 74 122l-2 1-2.9-1.5c-3.1-1.5-3.1-1.5-5.5-1.2l-1.6.7v2l6 3-2 1-1 3-2-3-2.7.7c-3.3.3-3.3.3-5.7-1C53 125 53 125 53 123h-2l-1-3-4-3v-2h-3l-1 2q-5.5-5.1-10-11z"/><path fill="#ee9861" d="M133 67c4.1 1.4 4.4 3.2 6.3 7A52 52 0 0 0 157 96c-2.3.7-2.3.7-5 1-7.9-5.5-12.8-16.6-17-25a68 68 0 0 0 13 38l2.1 2.7c6.4 5.1 14.2 8 21.8 11.1 8.3 3.5 18 8.3 24.1 15.2-3 1-3 1-5.3-.1l-2.6-1.7c-5-3.1-5-3.1-7.2-4.1-1.9-1.1-1.9-1.1-3.8-3a19 19 0 0 0-8.2-4.5A54 54 0 0 1 146 112l-3-1-3-6.6-1.6-3.7q-3.3-9.1-5-18.7l-.5-2a30 30 0 0 1 .1-13"/><path fill="#982e2a" d="M248 352c1 3 1 3-.1 5.4-6.8 10.5-13.6 18.6-25.9 22.2-6 1.3-11.6 1-17-2.1q-5.8-4.6-10-10.5v-2l2-.3c5-1 8.9-1.7 13-4.7-1 2.7-1.7 3.8-4.2 5.3l-2.4 1-2.5 1c-.3 0-.3 0-1.9.7a23 23 0 0 0 16.1 2.6l1.9-.6v2h4l2 3 2-3 2.7.1c4.5-.1 7-2.1 10.3-5.1l1-2h2l1-4h2l.9-2.8c1.1-3.2 1.1-3.2 3.1-6.2"/><path fill="#99302a" d="M17 18c2.5 2.5 3.2 4.8 4.4 8.1 5.4 13.1 14.2 24 24 34.1Q48.8 64 52 68c-4.2-1.6-7-4.7-10-7.9l-1.6-1.6-6.6-6.7c-2.4-2.4-4-5-5.8-7.8l-1.7-2.7C25 39 25 39 25 37h-2l-3-8h-2c-.4 7.8.4 15 4 22 1.1 2.3 1.5 4.5 2 7a44 44 0 0 0 13.3 21.8A12 12 0 0 1 42 87h3l1.3 2.1c2.2 3.8 5.3 6.2 8.7 8.9-5.5 0-9.2-5.4-13-9l-2-1.9a76 76 0 0 1-24.2-46.6V29.4c0-4 0-7.5 1.2-11.4"/><path fill="#b02f28" d="M154 335c2.8 1.4 2.9 2.8 4 5.7q1.6 4.4 3.8 8.7c1.2 2.6 1.2 2.6.2 5.6l-2.8-.1c-3.2.1-3.2.1-6.2 2.1-.2 2.6-.2 2.6 0 5-4.2-1.4-4.7-3.5-6.7-7.3l-2-3.5c-1.3-3.2-1.3-3.2-1.3-5.3 1.5-2.8 3.6-4.6 6-6.6l2.8-2.5z"/><path fill="#f9c267" d="M295 181c0 3.7-.6 4.2-3.1 6.8a48 48 0 0 1-33.6 13.4H256l-2.3-.1-5.7-.1 2 .8 2.8 1 2.6 1.1 6.6 3.1v2a62 62 0 0 1-21-9l-1-3 3-2-1.7-.8-2.2-1-2.3-1.1C235 191 235 191 234 189c4.3.5 8 1.7 12 3.3 4.4 1.6 8.6 1.8 13.3 1.8h3.3l2.4-.1 1 3c11.7-2.4 20.3-8 29-16m-46 15-1 2 3-1zm3 1v2h9v-2z"/><path fill="#cb3822" d="m247 261-8 4 2 1v2h3c.8 1.8.8 1.8 1 4-1.6 2.3-1.6 2.3-4 4-3.2-.2-3.2-.2-6-1l1-6-1.8 2c-2.2 2-2.2 2-5.2 2-1.7 2.5-1.7 2.5-3 5-2.5-1.2-4-2-6-4l-7-2v-4l2.4-.6 11-2.8 3.7-1 3.7-1 3.4-.8c6.6-1.8 6.6-1.8 9.8-.8"/><path fill="#cb6237" d="M325 89h2l-3.6 6.9c-7 13-8.7 25.9-9 40.6-.2 5.3-.8 10.1-2 15.3q-.7 3.7-.6 7.3c-.5 4.8-2.2 7.5-5.3 11.1a25 25 0 0 0-3.5 5.8l-2-2 1-2c6.4-14.3 8.4-28.6 8.8-44.2.4-13 .4-13 2.2-14.8l.6-8.4c.4-2.6.4-2.6 2.4-4.6l1 2 1.7-2.8z"/><path fill="#972e2a" d="M100 384h2c-1.5 5.4-5.1 8.9-8.9 12.9l-2 2.1c-7.8 8.1-17 14.7-28.5 15.1L60 414q3.6-3.7 7.6-7.1 6.2-5.6 12-11.7c2.6-2.4 5-3.8 8.4-5.2l2 1c-4.7 4-4.7 4-7 4v4c5.8-2 8.7-4.3 12.3-9.2q2.2-3 4.7-5.8"/><path fill="#ed9764" d="M61 186c5 .3 9.5.7 14.1 2.4 16.6 5.8 35.6 3.8 52.9 3.6l-19-4v-1c15.3.4 30.3 2.7 44 10l1 2-3-.6a161 161 0 0 0-31.2-2.9c-20.6-.1-39.3-1.6-58.8-8.5z"/><path fill="#ec915c" d="M23 65a49 49 0 0 1 8 10 117 117 0 0 0 35 32l1.8 1.2A187 187 0 0 0 90 120.5l16.6 7.9c2.4 1.6 2.4 1.6 3.3 3.8l.1 1.8-10-3-3-1-2-1-1-4-8-2v-2l-2.2-.9L76 117v-2l-2.6-.8a39 39 0 0 1-11-6.3A372 372 0 0 1 37 88v-2h-2c-1.6-2.1-1.6-2.1-3.3-5l-1.9-3-1.8-3-4.2-6.4C23 67 23 67 23 65"/><path fill="#cb3722" d="M105 148q10.4 3 20.4 7.5l2.6 1.2a50 50 0 0 1 11 6.3h-5q1.2 0 2.3.3c3.2.8 4 2 5.7 4.7-7.5 2.5-15.5-2.4-22.2-5.7-2.8-1.3-2.8-1.3-5.8-2.3v-2l-3-.9c-3-1.1-3-1.1-4-3.1l1-2h-3z"/><path fill="#e86227" d="M313 193h1c.5 5.9-1.4 10.3-3.6 15.6l-1 2.6Q304.8 222 299 232l-1.6 2.8-1.4 2.2h-2l-.7 1.6a43 43 0 0 1-6.3 8.4h-2v-2h-2v-4h2l1-3h2v-2c3-2 3-2 6-3l-.7-2.2c-.4-4 1.1-5.2 3.6-8.2A83 83 0 0 0 313 193"/><path fill="#ec9464" d="M419 65a24 24 0 0 1-11.2 5.4 123 123 0 0 0-14.2 3.9L380.8 78l-3.8 1c-3 .9-3 .9-5 .9-2-5.7-2-5.7-2-8l33-5.5 2.8-.4q6.5-1.3 13.2-1.1"/><path fill="#e86227" d="M134 283v2l-3 1-2 3h-3l-.9 2c-1.1 2-1.1 2-3.1 3l-.8 1.8a20 20 0 0 1-4.6 5.5q-4.4 5-7.8 10.5L107 314h-2l-.9 1.9C103 318 103 318 101 320l-1-3-2 2v-3h-2v-2h2l1-3 4-2 2-1v-3c.5-5.3 4.9-8 8.7-11.3 2.3-1.7 2.3-1.7 4.3-1.7l2-2 2 1 1-3 6-3c3-2 3-2 5-2"/><path fill="#b1382a" d="M80 383h2c-5.2 12.3-19.7 23-31.4 28a50 50 0 0 1-19.6 3l-2-2 3-1a73 73 0 0 0 20-10.8c2-1.2 2-1.2 4-1.2v3l3 1c3-2.1 5-3.9 7-7l2.3-1.4c4.1-2.4 7-5.7 9.9-9.4z"/><path fill="#e57a4c" d="m163 273 2 2c-2 2-2 2-4.7 3.6a24 24 0 0 0-9.9 14l-.4 2.4q-1.4 3.6-3 7l-1-4c-7.3 14.7-7.3 14.7-8.5 22.8-.7 3-2 5.4-3.5 8a52 52 0 0 0-3.6 21.3q-.1 9-1.4 17.9l-2-1a137 137 0 0 1 24.1-82.4l1.5-2.2c3-4.2 5.1-6.3 10.4-7.4z"/><path fill="#c93723" d="M163 353c6 7.2 6 7.2 6 13l-3 2-1 2h-6l1 7a28 28 0 0 1-6.3-8.8l-1.7-3c-1.2-4-.7-5.6 1-9.2a29 29 0 0 1 10-3"/><path fill="#9d342b" d="M134 69c3 3 4.4 6.8 6.2 10.6a38 38 0 0 0 5.5 8.7C148 91 148 91 148 93h-2l-3.6-4.5-2-2.5-1.4-2c.6 7.5 3.5 13.5 7.3 20 1.7 3 1.7 3 1.7 5h2c2.1 1.9 2.1 1.9 4 4v2l2.4.8A119 119 0 0 1 202 142l-1 2-1.3-1.4a116 116 0 0 0-39.5-23 36 36 0 0 1-19.7-19.6 86 86 0 0 1-6.5-31"/><path fill="#f9c269" d="M307 252c-.5 5-2.1 8.5-4.6 12.9l-1.9 3.5-1.5 2.6h-3q2.6-6.6 6-13l-1.8 2a153 153 0 0 1-27.9 22.3L270 284a69 69 0 0 1-14 7l-3-1 2.7-1.5c6.5-3.6 12.5-7.2 18.2-11.8 4.3-3.5 8.8-7 14.1-8.7l2-4 3.8-3.4q3.7-3.1 7-6.5c2.2-2.1 2.2-2.1 6.2-2.1"/><path fill="#f8bc79" d="m130 279 2 1-2.2 1.4c-6.6 4.2-12.3 8.6-18 14-3.6 3.6-3.6 3.6-5.8 3.6l-.8 1.8a26 26 0 0 1-4.3 5.7c-4.7 5.2-8.7 10.8-12.9 16.5l-2-1c.4-6 2.2-9.2 6-13.4l1.6-1.8L98 302l2-2.3c7.8-8.3 19.1-17 30-20.7"/><path fill="#9a312b" d="m178 230-2 2-1 4 8 2v2a51 51 0 0 1-36-3v-1q1.5 0 2.8-.3a71 71 0 0 0 22.6-5.8c2.6-.9 2.6-.9 5.6.1"/><path fill="#b03028" d="m276 199-1 3h17c-8.2 6.2-18 6.8-28 5.4a77 77 0 0 1-18-6.4c3.8-1.2 7.3-1 11.3-1 5.8.2 13.5-2.7 18.7-1"/><path fill="#f5b869" d="m352.6 76.9 2.4.1 2 5c-1.2 1.6-1.2 1.6-3 3-2.7-.3-2.7-.3-5-1l-1 3v-2h-2v-4c-5.7 1.5-10.9 4-14.3 8.9L329 95h-2l-.6 1.9-.7 2.4-.8 2.4c-1 2.4-2 3.6-3.9 5.3l-2 4-2-1a37 37 0 0 1 12-22l2.1-2c7.6-7.1 7.6-7.1 12.9-8l4 1c2-2 2-2 4.6-2.1"/><path fill="#f7b96d" d="M311 118c.6 20.6 1.1 47.5-14 64-2.2.7-2.2.7-4 1l5-10h2l.6-2 .8-2.6.7-2.6 2-5.7a92 92 0 0 0 2.7-31.4c-.1-6.1-.1-6.1 1.6-9.3 1.6-1.4 1.6-1.4 2.6-1.4"/><path fill="#9d312a" d="m231 274 1 2-4 6h2l-1 4-4 1-1-1-1.7 1.6A121 121 0 0 1 194 305l-2 1c-4.6 2.1-4.6 2.1-8 1l1-4 9-1v-3l5 1-1-3 2.8-.9c6.8-2.4 6.8-2.4 8.2-5.1l2.8-.9a13 13 0 0 0 8.2-7.1l2.3-1.3c3-1.9 5.2-4.1 7.7-6.7z"/><path fill="#eb6528" d="M231 326c2.9 0 5.2.4 8 1l6 1-2.7 5.7-1.6 3.2q-2.4 4.4-5.7 8.1a19 19 0 0 1-7.6-8.4c-.5-4.9.8-6.6 3.6-10.6"/><path fill="#f5b275" d="m137 287 2 1-1.5 1.6a70 70 0 0 0-17.8 47.7A105 105 0 0 0 126 366c-5.7-5-7.7-12-8.2-19.5l.2-8.5h-2l-1-4h2l.1-2.8c.4-6.8.8-12.2 3.9-18.2v-3l-4 4c3.8-10.6 12.4-19 20-27"/><path fill="#f1a169" d="m117 353 2 1q.5 3 .7 6.2l.3 1.8 2 1a69 69 0 0 1-7.6 10 21 21 0 0 0-5.4 9l-4-1 4.3-5.7 1.1-1.7q2.7-3.6 6-6.7c1.6-1.9 1.6-1.9 1.8-4l-.5-2.1-.7-3.8a81 81 0 0 0-9.4 10.8 551 551 0 0 1-13.6 18c-3.6 4-7.6 7.1-13 8.2v-2c1.8-1.3 1.8-1.3 4.2-2.7A28 28 0 0 0 96 378h2l.7-2.6c1.6-4 3.8-6.7 6.7-10l2.9-3.3 1.4-1.6 3.5-4.3c1.8-2.2 1.8-2.2 3.8-3.2"/><path fill="#e68455" d="M88 316c-.8 4.4-3 7-6 10l-2-1v2c-4.2 4-9.3 6.2-14.5 8.6l-2.6 1.2L56 340l-2.6 1.2q-4.8 1.4-9.8 1.5l-4 .2c-4 .1-7.8 0-11.6-1.9.7-2 .7-2 2-4 2-.8 2-.8 4.6-1.4a35 35 0 0 0 12.6-6.4C49 328 49 328 51 328c-1.7 5-6.5 6.7-11 9q-4.5 1.8-9 3c15.2 1 30.7-2.6 42.8-12.2a196 196 0 0 0 10.2-9.9c2-1.9 2-1.9 4-1.9"/><path fill="#ea6428" d="M114 236c2.3 5.3 3.3 8.2 2 14l.6 2.3.4 1.7c-2 2-2 2-4.3 2.6-3.3-.7-3.6-1.5-5.4-4.2A45 45 0 0 1 103 242l3.8-3 2.2-1.7c2-1.3 2-1.3 5-1.3"/><path fill="#cc5d33" d="M164 11c1 3 1 4.3.6 7.4l-.3 2.4q-.5 3.6-1.3 7.2h-2c.4 6.3.8 12 3 18l.4 3.6a45 45 0 0 0 4.8 15.2A70 70 0 0 0 177 79l3 1 .4 2.3c.9 4 2.2 5.5 5.6 7.7v4a17 17 0 0 0 3 3l-2 3-12.8-20.9a81 81 0 0 1-14.6-44.5v-3c.1-7.5 1.1-13.8 4.4-20.6"/><path fill="#f6b56c" d="M59 72a21 21 0 0 1 10 4v2h2l2 2.1C77.8 85.2 84.7 88 91 91l2.1 1 4.2 2q6.7 3.5 12.7 8l4 2-1 3-11.8-6-3.3-1.8A192 192 0 0 1 71.2 83q-4.6-3.5-9.4-6.8L59 74z"/><path fill="#c75e36" d="m407 69 3 1-30.3 14.8-2.5 1.3-2.4 1.2-2 1c-1.8.7-1.8.7-3.8.7 0-3.2 0-3.2 1-7 6.3-4.7 13.9-6.2 21.3-8.2l7.6-2 3.4-1C405 70 405 70 407 69"/><path fill="#af3429" d="m268 284 2 1-2.7 5.3-1.5 3a14 14 0 0 1-6.8 5.7c-3.4-.2-4.6-.6-7-3l-2 1-2-1v3h-2l-.4 1.8c-.6 2.3-1.6 4-3 6l-1.3 2.2-1.3 2-1.2 1.9-2.8 4.1-1-2q2.1-4.9 5-9.3l1.3-2.6c3.4-5.9 6.7-9 12.7-12.1l2-1q2.5-1.5 5.4-2.9l1.8-1z"/><path fill="#ea6428" d="M120 145h2v2q1.3 0 2.6.3c4 .8 6.1 2.3 9.3 4.6 6.3 4.4 6.3 4.4 10 5.5 4.7 2.4 7.1 6.3 10.1 10.6-3.5 0-4.8-.8-7.9-2.6l-2.9-1.6-3.2-1.8-7.2-3.9-3.3-1.8-2.5-1.3v-2l-1.8-.8a15 15 0 0 1-5.2-4.2z"/><path fill="#eb8e5b" d="M225 284c0 3 0 3-1.9 5.2-2.1 1.8-2.1 1.8-4.1 1.8v2c-1.9 1.5-1.9 1.5-4.3 3.1l-2.4 1.7C210 299 210 299 207 299v2q-7 3.7-14.6 6.5c-4.8 1.8-9 3.9-13.4 6.5h-2v2l-10.3 4.3a46 46 0 0 0-10.6 6.9l-1.8 1.4-4.3 3.4-2-1c13.6-13.2 30.7-20.4 47.8-28.2 11-5 20.2-10.7 29.2-18.8"/><path fill="#cc3822" d="M255 296v2q4-.7 8-2c-1.8 5-4.4 9.4-7 14l-3-1-1 1-1-3-3 1v-2c-2.5 1.3-2.9 2.5-4 5-1.1-1.7-1.1-1.7-2-4 .8-2 .8-2 2-4l1.1-2.2.9-1.8h2v-3c3-1 3.9-1 7 0"/><path fill="#e88554" d="m86 322 1 2c-14 18-31 34.5-54 40h-4v-2l3-.8A63 63 0 0 0 62 345l3-1.9c3-2.1 4.8-4 7-7.1 2.8-3.7 5.8-6.6 9.3-9.6q2.5-2 4.7-4.4"/><path fill="#e2683b" d="M57 184c3 2 3 2 4.8 4.3 2.5 3 5.2 5 8.5 7.1l1.8 1.2A101 101 0 0 0 120 210v2h29v1l-17.7.2c-14.6.1-28.7-.5-42.5-5.9l-2.8-1c-19.2-7.5-19.2-7.5-24-13.3v-2l-3-1c-2-3-2-3-2-6"/><path fill="#ca6136" d="M114 235c3 1 3 1 4.2 3l1.2 2.4 1.4 2.7L127 256l1 2c-5 1.3-9.7 2.3-15 2v-2h-3v-2l6-2-.6-2.2c-.4-2.8-.4-2.8.2-5 .6-4.2-.5-7.8-1.6-11.8"/><path fill="#cb6237" d="M112 336h1c1.2 4.3 2.3 8.6 0 12.7q-4 5.4-9 10.3c-2-1-2-1-3-3l-3 1-1 2c-1.2 2.5-2.5 2.9-5 4q7.5-11.4 16-22l2.2-2.9z"/><path fill="#982f2a" d="m153 294 2 1-1 4c6.8-.7 6.8-.7 9-3l1 3 9-3c-2.5 3.8-5.5 4.9-9.4 6.8A152 152 0 0 0 144 314a36 36 0 0 1 4.5-12.2l1-2c2.3-4.6 2.3-4.6 3.5-5.8"/><path fill="#ec9565" d="m350 89 2 1-2 1.3a119 119 0 0 0-17 13.7l-3 1 .2 2.8c-.2 3.5-.8 4.6-3.2 7.2l-1-1-5 5-2-1a45 45 0 0 1 18-24 91 91 0 0 1 13-6"/><path fill="#f7bc60" d="M157 23h1v5h2v3.4c.4 14 3.1 26.3 10 38.7 1 1.9 1 1.9 1 4.9l-3-1-2-4-3-1c-1-3-1-3 0-6l-3-5c-4.2-11.2-3.3-23.2-3-35"/><path fill="#ca6136" d="M307 97v3c-2 1.8-2 1.8-4.5 3.7l-2.5 1.9-2 1.4c4-.5 6.2-1.6 9.3-4l2.1-1.7 1.6-1.3 2 1c-8.7 8.2-15.9 12.2-28 12.1h-2q-5.6.1-11-1.1v-1l3.3-.4c12.1-1.8 22.6-5 31.7-13.6"/><path fill="#f5ad6e" d="M32 97c4.3.5 7 2 10.4 4.6q8.1 5.5 17 9.7 5.3 2.6 10.5 5.5 5.3 3 10.8 4.9L84 123c.7 2 .7 2 1 4-16.1-6.1-32-13.8-46-24l-2.3-1.6L32 98z"/><path fill="#e68759" d="m104 382 4 1-2.2 2.2-8 8.4-2.5 2.8c-2.3 2.6-2.3 2.6-4 5L90 403h-2v1.8c-1.5 3.4-4.3 4.3-7.5 5.8l-2 1A36 36 0 0 1 55 415c1.4-2.8 3.4-3.4 6-5l3-3 2 1v2l-5 3c12.8-.4 22.4-7 31-16q6.5-7.1 12-15"/><path fill="#ca6036" d="M233 379c0 4.6-2.5 7.3-5 11l-1.2 1.8a37 37 0 0 1-22 12.9A40 40 0 0 1 165 387l1-2c2.5 1.8 2.5 1.8 5 4v3h2l2.1 2.3c7.7 7.3 16.5 8.2 26.7 8 8.2-.4 15.1-4 21.2-9.3 4-5.4 4-5.4 4-8l2-1 1-3z"/><path fill="#cb6036" d="M224 113a43 43 0 0 1 16 27q1.4 9.4 2.3 19a58 58 0 0 0 6.5 24c1.2 2 1.2 2 3.2 4v3q-4.3-2-7.7-5.1l-2-1.7-1.3-1.2 1-2 3 3-.8-2.6a159 159 0 0 1-4.6-26c-1.5-13.2-3.7-24.6-12-35.3a31 31 0 0 1-3.6-6.1"/><path fill="#f8bc7b" d="M113 162a57 57 0 0 1 15.2 5c7.1 3 13.4 6.7 19.8 11l-2 1-6.3-2.6A233 233 0 0 0 110 167l4-1z"/><path fill="#eb8f5b" d="M144 107a42 42 0 0 1 7 6.3c4 4.1 9.7 5.8 15 8 22.4 9.5 22.4 9.5 30 17.7-3 1-3 1-5.3-.1l-2.6-1.7c-5-3.1-5-3.1-7.2-4.1-1.9-1.1-1.9-1.1-3.8-3a19 19 0 0 0-8.2-4.5c-9.2-3.4-19-7.3-24.9-15.6z"/><path fill="#cc3822" d="m220 353 3 3 3 1c1 1.8 1 1.8 1 4-1.9 2.8-1.9 2.8-5 5q-4.6.1-9-1c-.8-3-1-4.7-.3-7.7 1.8-3.1 3.7-4.3 7.3-4.3"/><path fill="#f4ab6d" d="m90 287 2 1c-1.2 3.7-2.2 4-5.4 6-8.2 5.5-14 13-20.1 20.6Q60 322.6 52 329c0-3 0-3 1.2-4.4L55 323q4.5-4.4 8.5-9.3c8-10 16.2-19.2 26.6-26.7"/><path fill="#e9662a" d="m81 222 9 3 .7 6c.3 2 .3 2 1.3 4l-2 5h-2v-2h-2v-2l-5-1v-4l-2-2h2z"/><path fill="#cc3722" d="m85 296 3 1-1.6 2.9L85 303l1 2h-2l-.8 1.8c-1.4 2.5-3 4-5 6l-2.1 1.8C74 316 74 316 70 316c1.3-4.5 2.9-7.5 5.8-11.1l2-2.5A39 39 0 0 1 85 296"/><path fill="#f0a062" d="m150 335 3 1c-5 5-5 5-7.4 7-1.6 2-1.6 2-1.4 4.2 1 3.3 2.3 6 4 9l1.8 3.4 10 18.4-2 2c-3-3.4-4.8-6.5-6.4-10.7-2-5-4.2-9-7.3-13.3-2-3.2-3.3-6-3.4-9.8 1.7-4.9 5.3-7.8 9.1-11.2"/><path fill="#e68757" d="M161 304h3c.4 2 .4 2 0 5-4 5.7-10.5 9.9-16 14-6.2 4.8-9.9 8-11 16v7h-3c-.1-7.7-.1-7.7 1-10v-9l2.9-.8c3.1-1.2 3.1-1.2 5.1-4.2l2.7-1.3c4-2 6.9-4.7 10.1-7.8l1.8-1.6c4.3-4 4.3-4 5.4-6.3z"/><path fill="#e58254" d="M6 90c4 2.4 5.3 5.2 7.1 9.5A65 65 0 0 0 27 118l2.7 3.4c2.8 3.2 5.8 5.2 9.3 7.6l-2 3c-6.2-4-11-8.7-15-15v-2h-2l-3.1-3.4-1.7-1.9C14 108 14 108 14 106h-2c-2.9-5.3-4.7-10-6-16"/><path fill="#e78455" d="M25 34h3c1.8 2 1.8 2 3.6 4.7l1.8 2.6Q35.6 45 37 49h2c3 4.4 3 4.4 3 7l3 1 5 5 5.8 4.8 3 2.4L61 71l-3 2a164 164 0 0 1-33-38z"/><path fill="#972e2a" d="m140 219-1 2h-8v3c13 3 25.8 3.1 39 3v1q-8.6 1.3-17.4 1.2H150a48 48 0 0 1-23.5-5.3l-3-1.7-2.4-1.2v-1q9.4-1 19-1"/><path fill="#e78252" d="M193 363h9v1h-7c3.2 6.5 7 10.7 13.4 14.4 6.4 1.5 13 .5 19.6-.4v2c-4.2 2.8-6.1 1.8-11 1l2 1v2l-2.4-.5c-2.6-.5-2.6-.5-4.6-.5-4.9-.4-7.4-1.6-11-5l-1-2-1.9-2.3c-5.1-6.5-5.1-6.5-5.1-10.7"/><path fill="#cd5d33" d="m361 95 2 1q-4.9 4-10.4 7.3c-9.5 6-15 13.4-17.4 24.3l-1.5 7.6-.7 2.8-2 1c1.3-17.7 1.3-17.7 6-25l1-3.2 1-2.8c2-.8 2-.8 4-1l3-1 1-3c2.7-1.5 2.7-1.5 6-3 5.8-2.8 5.8-2.8 8-5"/><path fill="#ef9b65" d="M135 317h1c.3 5.7.2 9.1-3 14a68 68 0 0 0-2.6 19q-.1 9-1.4 18l-2-1c-.7-17.5 1.8-33.6 8-50"/><path fill="#e78b5c" d="M236 268c1 2 1 2 .4 4.3-5.6 15-5.6 15-9.4 18.7q10-2.1 20-5c-3.2 3.5-6.6 4.5-11 6l-3.6 1.2c-3.6.8-6.7 1-10.4.8l2-4h2l.9-1.7 3.1-6.3-3 1q2.5-5 5.6-9.7l2-3z"/><path fill="#f8be7c" d="M130 190c7.7.5 17 2.5 22.9 7.7l1.1 1.3-2.6-.6c-15.6-3.3-31.5-3.1-47.4-3.4v-1l25-1z"/><path fill="#f7b778" d="M160.4 96.7a61 61 0 0 1 7 7.6L178 117c-5-1.5-8.2-4.4-12-7.8l-3.5-3.2-1.8-1.5-5.1-4.3L153 98v-2c3.3-1.1 4.4-1.4 7.4.7"/><path fill="#f8bb7b" d="m234 373 2 1v3h-2l-.6 1.8c-2.3 3.7-6.2 5.5-10.3 6.8-7.8 1.5-13.4.4-20.1-3.6 3.3-1.1 4.2-.9 7.4 0 3.6.9 6 1.1 9.6 0l8-2-1-3c5.3-3.2 5.3-3.2 7-4"/><path fill="#9c332b" d="M216 163a41 41 0 0 1 6.4 7.9c7.7 11.2 15 18 28.6 21.1l5-1c3.3 1.4 3.3 1.4 6 3v1a45 45 0 0 1-32.2-10.8A42 42 0 0 1 216 163"/><path fill="#b13028" d="m124 315 2 1c1 4.3 1 8.5 1 13l2 1-1 2.3c-1 2.7-1 2.7-1 6.7h-2l-1 2-2 1c-.2-9.2-.1-18 2-27"/><path fill="#cb6136" d="m294 271 1 2a138 138 0 0 1-7 12.8l-1.5 2.6q-3.6 6.3-7.1 12.9-6.6 12-13.4 23.7c-1.2-3.7-.6-4.7 1-8.2l1-2.7 1-2.1h2l.8-2.1q2-4.7 4.7-9.2l1-1.8z"/><path fill="#af3128" d="m178 230-2 2-1 4 8 2v2l-9.8.2c-4.5 0-8-.5-12.2-2.2l1.8-1.3c2.2-1.7 2.2-1.7 3.5-3.2 3.5-3.1 7.2-5 11.7-3.5"/><path fill="#cb6136" d="M101 101c6 1.7 11.3 4.5 16.9 7.2a427 427 0 0 0 23.5 10.7c4.5 1.9 4.5 1.9 5.6 4.1-4.7.5-7.6-1-11.7-3.3A87 87 0 0 0 119 113v-2l-2.8-.6c-5.5-1.6-10.3-4.6-15.2-7.4z"/><path fill="#9e352c" d="M246 200h25a18 18 0 0 1-7.7 3.1l-2.4.5-1.9.4c9.5 1.8 18.9 2 28-1.4 2-.6 2-.6 5 .4a47 47 0 0 1-34 3q-6-2.3-12-5z"/><path fill="#f3ab6d" d="M142 57c2.7 2.7 2.8 5 3.6 8.6A103 103 0 0 0 159 95h-3l-2-5h-2l-4.3-9.6c-2.5-5.3-2.5-5.3-4.7-6.4l-1-8-1-8z"/><path fill="#f3b968" d="m193 250 2 1a33 33 0 0 1-12.7 8.8A60 60 0 0 0 164 273l-4 4-2-1c10.2-11 21-20 35-26"/><path fill="#cb6237" d="m322 79 2 2-6.1 4.8-1.8 1.4q-5.1 4-11.1 6.8l2 3-9.9.2c-4.1 0-7.3-.3-11.1-2.2v-1h2.4c13.6-.6 24-5.3 33.6-15"/><path fill="#f19e63" d="m330 183 2 2c-.6 4.7-1.9 9.4-3 14l-.6 2.8c-2 8.7-6.3 16.4-10.4 24.2l-2-1 .7-1.6c4.6-10.8 8.3-21.2 10.5-32.8.7-3 1.3-5 2.8-7.6"/><path fill="#f4ad70" d="m120 211 18-.2c18-.3 18-.3 26 3.2l1 2-9.2 1-2.6.3q-6 .7-12.2.7c1-2 1-2 2.6-2.6q5.2-.7 10.4-.4v-2l-34-1z"/><path fill="#ea8956" d="m59 174 12.5 4.2c12.3 3.9 24.8 6 37.5 7.8v2l4 1a175 175 0 0 1-46.1-10l-2-.8c-4.8-2-4.8-2-5.9-4.2"/><path fill="#c85d35" d="M165 326c4.3 3.8 6.5 9.2 9.2 14.2l4.8 9 1.8 3.1a9 9 0 0 1 1.2 5.7q-4.8-4.4-8-10v-4h-2l-1.3-3.7a38 38 0 0 0-4.7-9.3l-3-1-1 3c-2 .7-2 .7-4 1 1.5-3.8 3.8-5.6 7-8"/><path fill="#ea8c59" d="M67 154q4.5.8 8.6 2.4 6.5 2.4 13.2 3.7l2.4.5q8.8 2 17.8 2.4v2l5-2v3a19 19 0 0 1-10 .1l-2.8-.6-3-.7-3.1-.7-22.1-5c-3.3-1.2-4.3-2.1-6-5.1"/><path fill="#f2a76c" d="M147 237q5.3 1 10.6 2.6a62 62 0 0 0 25.4.4 54 54 0 0 1-14 9l-2-1v-4l-4-.2a26 26 0 0 1-16-6.8"/><path fill="#e68251" d="m141 217-1 2q-4.3.7-8.6 1.1l-2.4.3-6 .6c6.3 3.4 12 5.7 19 7v3c-8.2-1.5-15-4.4-22-9v-2h-2v-2q11.5-1.2 23-1"/><path fill="#eb8f5a" d="M234 189c4.3.5 8 1.7 12 3.3 4.4 1.6 8.6 1.8 13.3 1.8h3.3l2.4-.1 1 4-4 1-1-1h-9a46 46 0 0 1-10-1v-3l-3.4-1.4C235 191 235 191 234 189"/><path fill="#f09c61" d="m117 353 2 1q.5 3 .7 6.2l.3 1.8 2 1a69 69 0 0 1-7.6 10 21 21 0 0 0-5.4 9l-4-1 4.3-5.7 1.1-1.7q2.7-3.6 6-6.7c1.6-1.9 1.6-1.9 1.8-4l-.5-2.1-.7-3.8-5 2c1.4-3.2 2-4 5-6"/><path fill="#d1592f" d="m133 277 4 1-4 4-2.4 2.6a19 19 0 0 1-7.6 4.4l-1 2h-3v3l-3-1-1.4 1.5-2 2-1.8 1.9C109 300 109 300 106 301c0-2 0-2 1.4-3.4q3.3-3 6.6-5.6l2.5-2.1q5.4-4.7 11.5-8.2c3-1.7 3-1.7 5-4.7"/><path fill="#e88555" d="M75 360c-4.9 2.7-9.6 4-15 5.1l-2.5.5a62 62 0 0 1-30.5.4v-3h2v2c13.2.4 25.7-.3 38.3-4.7 3.6-1.3 4.3-1.4 7.7-.3"/><path fill="#f3ab71" d="m173 299-8 9-1-4a82 82 0 0 0-16.6 10.4C145 316 145 316 142 316l1-4h3q3.3-2 6.5-4.2C168.9 297 168.9 297 173 299"/><path fill="#f8c166" d="M147 29h2l.3 2.2c1 7 2.7 12.8 5.7 19.2 1 2.6 1 2.6 1 6.6h-3l-2.4-6.7-.7-1.9a40 40 0 0 1-3-15.2v-2.4z"/><path fill="#f5ac6d" d="M275.7 107.8h3l2.3.2-1 3-3 1 12 1c-3 3-3 3-5.7 3.2-6.5-.6-11-1.4-16.3-5.2 2.6-3.4 4.6-3.3 8.7-3.2"/><path fill="#f7b878" d="m318 109 1 4 4-3-.8 1.9q-2.4 6.3-4.3 13l-.9 2.6-2 6.5h-1c-.3-7.8 0-15.4 2-23z"/><path fill="#ad3429" d="m388 78 2 1-9.4 5-2.7 1.4-2.5 1.4-2.4 1.3c-2 .9-2 .9-4 .9.3-3.4.3-3.4 1-7 3.5-2.3 5-2.3 9-2l2 1 3.5-1.5z"/><path fill="#ed935d" d="M118 320h1q1.2 6.7.9 13.4 0 16.8 6.1 32.6c-5.7-5-7.7-12-8.2-19.5l.2-8.5h-2l-1-4h2z"/><path fill="#c53a24" d="M105 250h2c2 3 3 4.4 3 8l3 1c-6.7.3-11.8-.5-18-3v-2l5 1v-2h4z"/><path fill="#ea9a63" d="m86 322 1 2a193 193 0 0 1-18 20l-1-3c1.7-2.4 1.7-2.4 4-5l1.8-2.4q3.4-4 7.5-7.2 2.5-2 4.7-4.4"/><path fill="#cb6237" d="M105 301c1.4 2.7 1 5 1 8l-3 1-2 2h-2a18 18 0 0 0-5.4 7.1c-1.6 2.9-1.6 2.9-4.3 4.3l-2.3.6q4.2-6.5 9-12.6l1.3-1.7q3.6-4.6 7.7-8.7"/><path fill="#f09d63" d="M250 353h2c-.5 4.4-2 6.8-5 10l-2 1-1 3h-2l-.9 1.8C240 371 240 371 238 374l-1 5h-3c.1-6 .1-6 2.4-8.6l3.6-3.4c3.1-3.2 5.3-7 7.6-10.7 1.4-2.3 1.4-2.3 2.4-3.3"/><path fill="#c75d35" d="m113 336 1.2 8.3c-.2 2.7-.2 2.7-2 4.6-2.2 1.1-2.2 1.1-6.2 1.1-.4-3.5-.6-6 1.3-9 4.3-5 4.3-5 5.7-5"/><path fill="#ee925a" d="M92 123c4.1.6 7.5 2 11.3 3.8l3.2 1.5c2.5 1.7 2.5 1.7 3.4 3.9l.1 1.8-10-3-3-1c-2-1-2-1-2.8-3.1L94 125h-2z"/><path fill="#f2a369" d="M255 290c-1.8 2-3.3 3.2-5.7 4.4-4.4 2.8-6.3 7.5-8.6 12a9 9 0 0 1-5.7 4.6 69 69 0 0 1 14-21c3-1 3-1 6 0"/><path fill="#e98958" d="m278 268 2 2c-2.3 2.6-4.6 4-7.7 5.4a85 85 0 0 0-9.5 5.2A69 69 0 0 1 246 288l1-3q3.5-1.8 7.2-3.1A74 74 0 0 0 278 268"/><path fill="#d95126" d="M205 187c2 2 2 2 2 6h2l5 12h2v2h2v2l1.8.9 6.2 3.1v2c-8-2.3-13.4-9-17.8-15.8A21 21 0 0 1 205 187"/><path fill="#d44e26" d="M169 169c3.1.4 3.1.4 6 1 .7 2.3.7 2.3 1 5-1.1 1.9-1.1 1.9-3 3-4.4-.4-4.4-.4-6-2-.2-2.4-.2-2.4 0-5z"/><path fill="#cc3722" d="M77 337c1.9 2.4 3 4 4 7l-3.2 2.6-1.9 1.4c-1.9 1-1.9 1-4.1.7L70 348a14 14 0 0 1 4-7.7l1.7-2z"/><path fill="#d26132" d="m166 250 3 2-3.9 2-2.2 1.1c-1.9.9-1.9.9-3.9.9v2c-6 3.5-11 4.7-18 5 2.4-2.4 4.3-3 7.4-4.2q9.2-3.8 17.6-8.8"/><path fill="#f7b778" d="M178 227c-2.6 3.2-5.6 4.3-9.4 5.7L165 234c-3.1 1-3.1 1-7.1 1v-2c4.8-1.1 4.8-1.1 7 0v-2l2-1h-12v-1l8.1-1 2.3-.3q6.2-.8 12.6-.7"/><path fill="#c95f36" d="M316 167h2a36 36 0 0 1-9 21c-1-3-1-3 .3-5.6l1.7-3.4 2.3-7c.7-2 .7-2 2.7-5"/><path fill="#b0382b" d="M156 89q5.4 5.1 10 11v2l2.3.1c2.7.9 2.7.9 4.4 3.7q1.5 3.5 2.3 7.2a50 50 0 0 1-9.5-9.4l-7.6-9.1C156 92 156 92 156 89"/><path fill="#ab342a" d="M114 160c3.7.6 6.8 1.7 10.3 3.3q5.2 2.5 10.6 4.7c4 1.7 6.3 3.8 9.1 7q-7-2.8-13.9-6l-16.1-7z"/><path fill="#ac3329" d="M184 242c-2.2 3-4 5-7 7l1 2h-11q4-4.3 9-7.3l2.7-1.6c2.3-1.1 2.3-1.1 5.3-.1"/><path fill="#cc6035" d="M109 137q12 5.9 23.8 12.3l3.4 1.8c2.6 1.8 4.1 3.2 5.8 5.9-5-1.8-9-4.5-13.4-7.4-2.3-1.4-4-2-6.6-2.6l-1.4-1.5c-1.6-1.5-1.6-1.5-4.5-2-3.7-.6-4.9-1.6-7.1-4.5z"/><path fill="#ce4826" d="M101 355a11 11 0 0 1 2 4 11 11 0 0 1-5 6.2l-2 .8-2.2 1.1-1.8.9-1-5 2.2-1.2c3-2 5.3-4.2 7.8-6.8"/><path fill="#b13028" d="m139 292 1 2 3-1v2l-2 1.8c-2.5 2.7-2.5 4.6-3 8.2l-2 2-3-2c-.2-3.6-.2-3.6 0-7l3 1 .4-2.4c.6-2.6.6-2.6 2.6-4.6"/><path fill="#d16233" d="M254 230h10a41 41 0 0 1-12.6 6.3l-2.3.8-2.2.8-2 .7c-1.9.4-1.9.4-4.9-.6l2-.4 2-.6 1-2c2-.9 2-.9 4.6-1.6l2.5-.8 1.9-.6z"/><path fill="#c13a25" d="m287 191 2 1-3 1v2h4v4h-3v2l-5-1v-2h-5c2.8-3.3 6.2-5 10-7"/><path fill="#ed935e" d="M57 184c3 2 3 2 4.7 4.3 2.8 3.3 5.8 5.2 9.4 7.4 6.7 4.1 6.7 4.1 8.9 6.3a29 29 0 0 1-16.8-7.5C62 193 62 193 62 191l-3-1c-2-3-2-3-2-6"/><path fill="#e98a59" d="m104 382 4 1-2.2 2.2-8 8.4-2.5 2.8c-2.3 2.6-2.3 2.6-4 5L90 403h-2v2l-4 1 10.6-12q5-5.6 9.4-12"/><path fill="#e68353" d="M16 16h3l1.5 3.4 3 6.7q.3 1.2.9 2.2l.8 2L27 34h-3l-6-14a16 16 0 0 0-3 8l-2-1c1.9-7.6 1.9-7.6 3-11"/><path fill="#f4ab6e" d="M262 332c.7 1.7.7 1.7 1 4-1.3 2.3-1.3 2.3-3.2 4.8q-4.4 5.9-7.8 12.2h-2q2.6-6.6 6-12.7l1-2.1c2.8-5 2.8-5 5-6.2"/><path fill="#f0a05b" d="m110.4 258.4 2.4.1c3.2.2 6 .5 9.2 1.5v2a27 27 0 0 1-12 0h-10v-3c3.3-1.6 6.9-.9 10.4-.6"/><path fill="#e37747" d="M121 309c1.1 3.8 1.1 3.8 0 6h-2l-1 2-2 3h-2l-.7 2.5A56 56 0 0 1 107 334c-.8-2.3-1.2-3.5-.3-5.8l1.2-2 1.3-2 1.4-2.1 1.4-2.2q3.8-6 9-10.9"/><path fill="#f2a66d" d="m68 308 1 2a47 47 0 0 1-18 19c1.3-2.9 2.8-5 5-7.3l1.7-1.9 1.8-1.9 3.5-3.7 1.6-1.6C66 311 66 311 68 308"/><path fill="#e27548" d="M88 316c-.8 4.4-3 7-6 10l-2-1v2l-5 4-2-1c12-14 12-14 15-14"/><path fill="#f5b276" d="M236 268c1 2 1 2 .3 4.4-5.3 14-5.3 14-8.3 15.6l2-6-3 1q2.5-5 5.6-9.7l2-3z"/><path fill="#a0342b" d="M352.6 77h2.4l2 5c-1.2 1.6-1.2 1.6-3 3-2.7-.3-2.7-.3-5-1v-6c1-1 1-1 3.6-1"/><path fill="#f2a56a" d="M59 72a21 21 0 0 1 10 4v2h2l4 4-1 3-7.5-5.4-2.2-1.5-2-1.5-2-1.4L59 74z"/><path fill="#f6b474" d="m348 105 2 1c-3.3 6.1-6.3 11-12 15l-1-2c3.3-5.2 6.5-9.9 11-14"/><path fill="#f5ae6f" d="m306 106 2 1c-1 3-1 3-2.7 4.1l-2.1 1-2 1c-4.6 1.9-8.4 2-13.2 1.9 1-2 1-2 3.8-3l7-1.9c3-1 4.8-2 7.2-4.1M149 360q3.2 2.9 5 6.6l1.1 2 1 2 1.2 2.2 2.7 5.2-2 2a37 37 0 0 1-6.7-11.1q-.8-1.4-1.3-3.2c-1-2.7-1-2.7-1-5.7"/><path fill="#eb955f" d="m240 197 6 2v2q8 2.7 16 5v3a62 62 0 0 1-21-9z"/><path fill="#cb6237" d="M146 30h1l2 16h-2l-1-3-2-1v5h-1l.4-5.7.2-3.2A26 26 0 0 1 146 30"/><path fill="#a72f29" d="m92 120 6 2v2l2.4.1c5 1.2 8.5 4 12.6 6.9-3 1-3 1-5 .2l-2.2-1.3-2.5-1.4-2.5-1.4-2.5-1.5L92 122z"/><path fill="#ed9762" d="M43 58c7.3 2 12.8 8.7 18 14l-3 1-7.5-7-2.2-2-2-1.8-2-1.8C43 59 43 59 43 58"/><path fill="#f8c164" d="M95 353h3q-2.4 7.5-8 13c-2.2.7-2.2.7-4 1 1.1-3 2.2-5.3 4-8h2v-2h2z"/><path fill="#f2a268" d="m177 259 3 2-1.5.8q-10.3 6.3-18.5 15.2l-2-1 6.1-6.2 1.8-1.8q5-5.2 11.1-9"/><path fill="#cb6136" d="m193 251-7.2 4-2 1a29 29 0 0 1-10.8 4l2-1v-2l5.4-3c1.6-1 1.6-1 2.6-3a17 17 0 0 1 10 0"/><path fill="#f6bd55" d="m192 253 4 2-4 2v2l-5.4 3-3 1.6-4.6 2.4c.7-2.9.7-2.9 2-6 2.4-1.2 2.4-1.2 5-2 3.3-1.4 4-1.9 6-5"/><path fill="#df764c" d="M13 127c3.5.6 6 2 9 4l1 2 5 2 2 2c-6.6-.3-10-2.8-15-7l-1 3z"/><path fill="#b43a2b" d="m50 110 9.2 4.3 2.6 1.2q6.3 2.9 12.2 6.5c-2 1-2 1-4.5.2A89 89 0 0 1 50 112z"/><path fill="#c94427" d="M85 373a15 15 0 0 1 2 4c-1 3-2.7 4.9-5 7l-2-1-1-5z"/><path fill="#bc462c" d="M115 357h2l2 8c-3.3 1.6-6.4.5-10 0l2.9-4 1.6-2.2z"/><path fill="#9c332b" d="M154 335v3q-2.6 2.4-5.4 4.4a7 7 0 0 0-2.6 5.6l3 6-1 3-2.6-4.2-1.4-2.4c-1-2.4-1-2.4-1-4.4 1.5-3 3.6-4.6 6-6.7l2.8-2.5z"/><path fill="#f5b070" d="m237 309 1 2-3.4 6.6-1 1.9-2.6 4.5h-3c1.5-6.3 3.4-11.3 9-15"/><path fill="#e88c5b" d="m141 217-1 2q-7.4 1.3-15 1h-7v-2q11.5-1.2 23-1"/><path fill="#9f322a" d="m64 399 3 1c-5.8 6-12 9.6-20 12l-2-1 6.7-3 5.3-2 2-1 1-3c1.9-1.7 1.9-1.7 4-3"/><path fill="#e78353" d="m199 304-1.8.9-10.3 5.3-2.1 1.1-5.8 2.7-3-1c3.4-2.8 7-4.5 11-6.2l3.6-1.6c3.1-1.1 5.1-1.5 8.4-1.2"/><path fill="#e98e5e" d="M81 393c-1.7 4.3-4.9 7-8.1 10.3l-1.7 1.6L67 409l-2-1 1-2h2v-2l5-5 3.2-3.3C79 393 79 393 81 393"/><path fill="#c33b25" d="m196 377 7 5-3 5c-2-1.2-2-1.2-4-3v-4l-2-1z"/><path fill="#f3a96d" d="m92 372 4 1-6.6 6.6C87 382 87 382 85 385h-2v2l-3-1 2.1-2.3 2.8-3 1.4-1.5q3-3.4 5.7-7.2"/><path fill="#ea8958" d="M127 351h3a88 88 0 0 1-1 17l-2-1z"/><path fill="#ac342a" d="m153 294 2 1c.4 2 .4 2 0 5a59 59 0 0 1-6 7l-2-3z"/><path fill="#ad3c2c" d="m158 209 1 3 6 1c-3.6 1.1-5.7.6-9.4-.5-5.7-1.1-11.7-1.2-17.6-1.5v-1a118 118 0 0 1 20-1"/><path fill="#f9c466" d="M296 104c-2.8 4.2-6.2 4.8-11 6-3 .2-3 .2-5 0 2.4-3.7 3.9-4 8-5.2l3.3-1.1c2.7-.7 2.7-.7 4.7.3"/><path fill="#eb915f" d="M15 23h1l.6 10.4.2 3 .2 2.8.1 2.6C17 44 17 44 15 46c-1.5-3-1.4-6-1.7-9.2q0-2-.3-4c0-3.8.6-6.3 2-9.8"/><path fill="#a8332a" d="M98 363c0 4.3-2.6 6.5-5.3 9.6l-1.5 1.7A34 34 0 0 1 84 381c3.2-7 8.5-12.8 14-18"/><path fill="#de6e47" d="M27 363h2v2l21 1v1c-8.1.9-15.1 1.3-23-1z"/><path fill="#f5ac6d" d="M111 359h2a68 68 0 0 1-5.4 9.2l-1.7 2.7c-2 2.2-3 2.8-5.9 3.1 1.6-3.5 3.7-6.2 6-9.2l2.2-2.7z"/><path fill="#ec9562" d="m105 332 1 3-4.7 5.3-1.4 1.5A44 44 0 0 1 92 349l-2-1 2.3-2.2 3-3 1.4-1.5q4.5-4.4 8.3-9.3"/><path fill="#cd3d23" d="M276 197c4 .3 5.6.5 8.4 3.6l1.6 2.4-6.8.1c-2.2-.1-2.2-.1-4.2-1.1z"/><path fill="#eb915c" d="M38 130a55 55 0 0 1 12.3 6.6l2 1.3L57 141l-2 1-8-3.7-2.3-1-2.2-1.1-2-1c-2-1.5-2.1-2.8-2.5-5.2"/><path fill="#e99a5f" d="M275.7 107.9h3l2.3.1-1 3-3.9.4c-2.4.3-4 .5-6.1 1.6l-3-3c3.4-2.3 4.7-2.2 8.7-2.1"/><path fill="#fcd45d" d="M342 78c3.7.9 3.7.9 7 2v7l-1-2h-2v-4l-2.8 1-6.2 2c1.4-3.2 2-4 5-6"/><path fill="#e88959" d="M193 363h9v1h-7q3.8 7 9 13c-2.2-.1-2.2-.1-5-1-2.2-2.8-2.2-2.8-4-6l-1.2-2.2c-.8-1.8-.8-1.8-.8-4.8"/><path fill="#eb925e" d="m67 342 1 3-11 8-2-1c3.6-4.8 6.7-7.3 12-10"/><path fill="#f5b06c" d="m270 279 2 1c-2.9 4-5.6 6.2-10 8.4l-3.2 1.6c-2.8 1-2.8 1-5.8 0l3-1.6 3.8-2.2 2-1c3-1.8 5.9-3.5 8.2-6.2"/><path fill="#cb6338" d="M302 257c0 3.7-1.2 5.5-3 8.7l-1.7 3-1.3 2.3-1-4h-3z"/><path fill="#f9c074" d="M217 249v2l-5.7 1.6-3.3.8c-2.8.6-4.3.6-7-.4 5.5-2.8 9.7-4.5 16-4"/><path fill="#f8ce56" d="M222 245a57 57 0 0 1-7 4v-2l-7 2v-3a21 21 0 0 1 14-1"/><path fill="#f0a068" d="m69 398 1 2h-2l-.7 1.8A13 13 0 0 1 62 407h-2v2l-7 1 1.7-1.3 9.2-7q2.5-2 5.1-3.7"/><path fill="#f0a16a" d="m123 305 3 1-2.4 7.3-.6 2a56 56 0 0 1-4 9.7c-.3-7.9-.3-7.9 2-12v-2.6c0-2.4 0-2.4 2-5.4"/><path fill="#a2332a" d="m173 260 2 1-5.8 5.4-1.7 1.5a61 61 0 0 1-7.5 6.1v-3h2l.8-1.8a17 17 0 0 1 4.7-5.4l1.8-1.5c1.7-1.3 1.7-1.3 3.7-2.3"/><path fill="#f6b66f" d="m242 197 19 2-1 2c-6.8.4-11.8-.2-18-3z"/><path fill="#e37c4f" d="M42 165a29 29 0 0 1 11.3 4.4l3.3 2L59 173v2c-4.4-1.3-8-3-11.9-5.6l-2.9-1.8L42 166z"/><path fill="#e0764b" d="M136 95c1.8.2 1.8.2 4 1 1.5 2.4 1.5 2.4 2.8 5.3l1.2 3c1 2.7 1 2.7 1 6.7h-2l-1.3-3-1.6-3.9-.9-2c-2-4.9-2-4.9-3.2-7.1"/><path fill="#9f332b" d="M43 411v2q-5.8 1.4-12 1l-2-2a21 21 0 0 1 14-1"/><path fill="#ea8956" d="m156 305 3 1-6.2 4.4-1.8 1.3c-5.4 3.8-5.4 3.8-9 4.3l1-4h3q3.9-2.6 7.6-5.6z"/><path fill="#ee9159" d="M199 144c4.4.7 6 2.8 8.7 6 1.7 2.6 2.2 5 2.3 8-2-1-2-1-3.2-3.7-1.6-3-2.5-4-5-6L199 146z"/><path fill="#cb6237" d="m74 122 15 6-2 2-5.3-1.8-3-1A12 12 0 0 1 73 123z"/><path fill="#f19c61" d="m67 386 2 1c-3 3.7-5.7 4.8-10 6-2.8 0-4-1.2-6-3l2-.4 2.8-.5 2.6-.5c2.6-.6 2.6-.6 4.8-1.7z"/><path fill="#d34a25" d="m110 341 2 1c-.7 5.8-.7 5.8-3 8h-3l1-6h2z"/><path fill="#cd512c" d="m241 180 1.8 1.5c2.2 1.5 2.2 1.5 6.2 1.5 2.4 2.5 3 3.5 3 7a32 32 0 0 1-7.7-5l-2-1.6C241 182 241 182 241 180"/><path fill="#c05332" d="m300 178 1 3-11 10-2-1z"/><path fill="#d14926" d="M387 77a13 13 0 0 1-7 5c-3 0-3 0-4.9-1.4L374 79a34 34 0 0 1 13-2"/><path fill="#f5b872" d="M161 15c1 3.3.9 5.4 0 8.8l-.5 2.4-.5 1.8h-2c-1.1-4.7-1-7.6 1-12z"/><path fill="#e36b3d" d="M202 377q4.6.5 9 2c.7 2 .7 2 1 4-4.9-.5-7.4-1.7-11-5z"/><path fill="#cd5b32" d="M79 263c6 3 10.1 5.6 14 11q-7.4-2.6-13-8z"/><path fill="#ab362a" d="m132 187 8.5 2 2.5 1 1 3-1.8-.4q-6-1.5-12.2-2.6z"/><path fill="#f4af61" d="M311 110h2l1 4h-2v9l-2-4-2 1c.8-7.7.8-7.7 3-10"/><path fill="#d14f28" d="M105 301c1.4 2.7 1 5 1 8l-3 1-2 2c-.7-1.7-.7-1.7-1-4 1.4-2.8 2.8-4.8 5-7"/><path fill="#a9352a" d="m66 392-3.4 1.4C59 395 59 395 57 397l-7-3v-1l5.8-1 3.2-.7a14 14 0 0 1 7 .7"/><path fill="#b53f2d" d="m85 294 2 1-5 5h-2l-.7 2c-1.3 2-1.3 2-3.4 2.6l-1.9.4c3.4-4.1 6.7-7.8 11-11"/><path fill="#c33925" d="m131 285 2 1-3 2zm-5 4 3 1-7 7-1-3zm-8 9 2 1-4 2z"/><path fill="#d54c26" d="m177 202 5 1v4l-5 1-1-5z"/><path fill="#db6c44" d="m64 407 2 1v2l-5 3-1 2 4 1-9-1c1.4-2.8 3.4-3.4 6-5z"/><path fill="#a8332a" d="M79 379c0 3 0 3-2.2 5.4-7.2 6.6-7.2 6.6-9.8 6.6 1.1-3.4 2-4 4.9-6q3.8-2.6 7.1-6"/><path fill="#af372a" d="M208 245c-2.3 2.3-3.7 2.7-6.8 3.6l-2.6.8q-3.8.8-7.6.6c5-4.3 10.6-5.3 17-5"/><path fill="#e6804f" d="m113.8 209.4 3.5.3 2.7.3v2c-3.9 1.4-7.2.7-11.2 0l-3.9-.5-2.9-.5v-1c4.1-1 7.6-1 11.8-.6"/><path fill="#c74227" d="M317 180h4l1 4h-3v3l-4 1z"/><path fill="#bf4329" d="M167 102a9 9 0 0 1 4 1q3 4.6 4 10c-4.7-3.2-6.1-5.9-8-11"/><path fill="#f1ac71" d="M77 333c0 3 0 3-1.7 5l-2.3 2.2-2.2 2.2L69 344l-1-3c2.5-3.8 5-6 9-8"/><path fill="#e67c4c" d="M118 320h1c1.2 6.2.7 11.8 0 18h-3l-1-4h2z"/><path fill="#ef9b61" d="m241 300 3 1-2.2 3.9c-.3.3-.3.3-1.3 2.2a11 11 0 0 1-5.5 3.9q2.9-5.6 6-11"/><path fill="#d96b3e" d="m265 194 1 4-4 1-1-1h-12c2.5-2.5 3.6-2.3 7-2.6 3.2-.2 6-1.4 9-1.4"/><path fill="#f6ae6e" d="M88 365c0 3.6-.8 4.4-3 7.2l-1.7 2.2L82 376l-2-1c1.6-3.8 4-6.2 7-9z"/><path fill="#e37b51" d="m239 368 3 1-2 2.2a14 14 0 0 0-3 7.8h-3c.5-6.4.5-6.4 3-9.4z"/><path fill="#f6ad6b" d="m282 191 2 1v2l-3.8 2-2.2 1.2c-2 .8-2 .8-5-.2 1.3-2.5 2.4-3 5-4.2l2-1z"/><path fill="#ee9a63" d="M23 65q4.3 4 7.3 9.3l1.5 2.7 1.2 2c-3.9-1.5-5.2-3.5-7.2-7l-1.6-2.7C23 67 23 67 23 65"/><path fill="#e3784e" d="M0 64c3.2 1.4 4 2 6 5l-4-1v8c-2-2-2-2-2.2-4.4V69l.2-3z"/><path fill="#ef8f55" d="M161 304h3c.4 2.1.4 2.1 0 5a30 30 0 0 1-6 6h-2c1.7-4 4.2-6.8 7-10z"/><path fill="#ee9861" d="M159 281c.7 1.8.7 1.8 1 4-1 2-1 2-2.4 3.8l-1.5 1.8-1.1 1.4-4-1 1.2-1.4 1.7-2 1.6-1.8c1.5-1.8 1.5-1.8 3.5-4.8"/><path fill="#e1794e" d="M57 184c3 2 4.7 4 7 7l2 2-1 3-3-3v-2l-3-1c-2-3-2-3-2-6"/><path fill="#f2a76f" d="M56 101a171 171 0 0 1 13 8c-3 1-3 1-5.2-.1l-2.4-1.7-2.4-1.6c-2-1.6-2-1.6-3-4.6"/><path fill="#de7046" d="M6 90c2.8 1.7 3.9 2.5 4.8 5.7l.4 3 .5 3 .3 2.3c-3-1.5-3-3.4-4.1-6.4l-1.1-3C6 92 6 92 6 90"/><path fill="#facc66" d="M283 94c4.4.7 8 2.2 12 4v1c-8.4-.4-8.4-.4-11-3z"/><path fill="#e68557" d="m36 47 1 2h2c3 4.4 3 4.4 3 7l3 1-3 1-3.6-3.8-2-2.2-1.4-2z"/><path fill="#e4794d" d="M16 16h3l1 4h-2a16 16 0 0 0-3 8l-2-1c1.9-7.6 1.9-7.6 3-11"/><path fill="#982f2a" d="M172 299c3.2 1.4 4 2 6 5-4.7-.9-4.7-.9-7-2z"/><path fill="#cb6136" d="M73 253c4.9 1.8 4.9 1.8 6 4h-2l2 6c-3.5-3.2-5.6-5.2-6-10"/><path fill="#f1a46b" d="M56 152c5.7.4 10 1 15 4-3.8 1.4-6 .5-9.7-1l-3-1-2.3-1z"/><path fill="#b73d2c" d="M78 334c0 3.7-1 4.5-3.4 7.2l-1.9 2.2C71 345 71 345 69 345c1.4-3.2 3.1-5.3 5.6-7.7l2-2z"/><path fill="#e98a5a" d="M145 333h2c-1.7 4.3-4.7 6.9-8 10l-2-1 3.9-4.5 2.2-2.5z"/><path fill="#f8b978" d="M267 323c.8 1.6.8 1.6 1 4-2 3.3-2 3.3-4 6l-2-1c1.2-3.5 2.7-6.1 5-9"/><path fill="#e57d4d" d="M67 154c4.6.7 8.7 2.3 13 4l-1 2c-8.4-1.3-8.4-1.3-11-4.1z"/><path fill="#df6f47" d="m133 67 3 1a32 32 0 0 1 2 5l-3-1-1 7h-1c-.8-4.3-1.2-7.7 0-12"/><path fill="#a33a2d" d="M254 191c5.8 1.8 5.8 1.8 8 4h-9c0-3 0-3 1-4"/><path fill="#ec8f5a" d="m330 183 2 2c-.5 2.8-.5 2.8-1.4 6.1l-.9 3.3-.7 2.6c-2-3-2-3-1.7-6.4.6-3 1.2-5 2.7-7.6"/><path fill="#c65934" d="M119 136c5.6.4 8 2.3 12 6l-1 2-5.5-3.4-3-2-2.5-1.6z"/><path fill="#f5c060" d="m229 323 1 3-5 5c0-3.1.4-4.4 2-7zm-7 8 2 1-2 1z"/><path fill="#e88353" d="m315 226 3 1-6 10c-1-3-1-3-.2-5l1.1-2.2 1.2-2.2z"/><path fill="#cb6237" d="m291 210 2 1-8 7-2-1c1-2.5 1.6-3.8 4-5.2l2-.8z"/><path fill="#f6b474" d="M327 194h1c1.4 6.8 1.4 6.8 0 10l-3 1c.9-7.6.9-7.6 2-11"/><path fill="#f9c260" d="m338 120 2 1-3 9-2-2c.3-3.6.3-3.6 1-7z"/><path fill="#f09f67" d="M32 97c4.5.5 7.3 2.4 11 5l-3 2-4-3-2.2-1.6L32 98z"/><path fill="#eb8a56" d="m68 308 1 2a18 18 0 0 1-7 8l-2-1z"/><path fill="#ef9c66" d="M94 207q6.6.6 13 2v1c-5 1-8.2 1-13-1z"/><path fill="#f3a266" d="M180 129c3.5 1.2 6.1 2.7 9 5l-9-1z"/><path fill="#f09b61" d="M78 121c3 .8 3 .8 6 2l1 4-8-3z"/><path fill="#f9c662" d="m354 101 2 1c-1.5 4.4-4 4.9-8 7 1.4-3.4 3.3-5.5 6-8"/><path fill="#b5452f" d="M146 30h1v9l-3 1 .7-7c.3-2 .3-2 1.3-3"/><path fill="#e37b4b" d="m135 336 2 1v9h-3c-.1-7.7-.1-7.7 1-10"/><path fill="#ee9c66" d="M262 332c.8 1.8.8 1.8 1 4-2 2.3-2 2.3-4 4-1-3-1-3-.2-5.1 1.2-1.9 1.2-1.9 3.2-2.9"/><path fill="#b3462f" d="m172 271 2 1-1 2-3 1-4 5-2-1c4.6-5.7 4.6-5.7 8-8"/><path fill="#f8ba6f" d="M128 255h1v5c-1 1-1 1-4.6 1H121c1.4-2.8 3.2-2.9 6-4z"/><path fill="#e88556" d="m61 186 10 1 1 2c-3.4 1.1-4 .9-7.2-.4l-2.2-1-1.6-.6z"/><path fill="#f6b65e" d="M331 162h2c.2 3.4.2 3.4 0 7l-3 2z"/><path fill="#ea8f5d" d="m48 149 6.7.6c2.3.4 2.3.4 5.3 2.4-5 1.6-7.5.2-12-2z"/><path fill="#eb905b" d="M26 137h5v2l4 2-2 2-7-5z"/><path fill="#f6b071" d="M41 103c3.8.5 6.2 1.4 9 4v2c-4-1.3-6.2-3-9-6"/><path fill="#f5af70" d="M37 408v2c-3.4 1.5-5.2 2-9 2v-2c5.6-2 5.6-2 9-2"/><path fill="#ef935a" d="M143 342q1.4 4.4 2 9h-3c-.6-2.8-.6-2.8-1-6z"/><path fill="#f7b979" d="M155 330h3v3c-3.3 3-3.3 3-6 3 1.9-4.9 1.9-4.9 3-6"/><path fill="#d24824" d="M238 270c3.9 2.8 3.9 2.8 5 5l-6 1z"/><path fill="#e8925c" d="M108 259v2l-8 1v-3c2.9-1.4 5-.6 8 0"/><path fill="#f2a66d" d="M144 107a24 24 0 0 1 8 9 20 20 0 0 1-8-6z"/><path fill="#f09f66" d="M4 69c3.8.7 3.8.7 5.7 3.4C11 75 11 75 12 78c-3.5-1.2-3.9-2-5.7-5L5 70.6z"/><path fill="#ee9b66" d="M25 34h3l3 7-1 2-2.5-4-1.4-2.2C25 35 25 35 25 34"/><path fill="#ed955f" d="M78 375h3c-1.2 3.7-1.7 4.8-5 7l-2-2h2v-2h2z"/><path fill="#ca3622" d="m111 364 4 1-4 5h-2z"/><path fill="#e8885a" d="m115 332-1 12h-1l-.1-1.9-.3-2.5-.2-2.4c-.4-2.2-.4-2.2-2.4-4.2 2-1 2-1 5-1"/><path fill="#a9362b" d="m95 254 9 2v2c-6.7-.9-6.7-.9-9-2z"/><path fill="#f7b878" d="M297 112v2c-3 1.5-5.7 1-9 1 1-2 1-2 2.8-2.6 2.2-.4 2.2-.4 6.2-.4"/><path fill="#df754c" d="M18 58c1.9.1 1.9.1 4 1 1.3 3 1.3 3 2 6l-2 1c-4-5.7-4-5.7-4-8"/><path fill="#ec8b57" d="M228 378v2c-3 2-3 2-7 2v-2c3-2 3-2 7-2"/><path fill="#ee9860" d="M154 373c1.9.3 1.9.3 4 1 1.3 2 1.3 2 2 4l-2 2c-4-4.7-4-4.7-4-7"/><path fill="#e27f4e" d="m117 353 2 1-1 3-1-1-1.4 1.5C114 359 114 359 112 359c1.4-3.2 2-4 5-6"/><path fill="#af2f28" d="m170.2 311 1.8 1c-3 2-3 2-7 2v-3c3-1 3-1 5.2 0"/><path fill="#b34d36" d="m141 284 1 3-6 5c1.4-3 3-5.4 5-8"/><path fill="#a73e2e" d="M164 267h2c-1.4 3.4-3 5-6 7v-3h2z"/><path fill="#f3a860" d="M304 252h3l-1 6h-3z"/><path fill="#f3aa71" d="M242 197c7.1.7 7.1.7 10 4l-4.4-.9-2.5-.5-2.1-.6z"/><path fill="#f09d64" d="m104 159 9 2v2c-4.5-.5-5.7-.7-9-4"/><path fill="#e98351" d="M174 125c3 1.3 3 1.3 6 3l1 3-2 1-6-6z"/><path fill="#e57a4c" d="m346 79 3 1v7l-1-2h-2z"/><path fill="#cc3922" d="M147 61c2 2 2 2 2.1 5.6L149 70h-2c-.8-3.4-1.1-5.7 0-9"/><path fill="#f7b776" d="M97 366h2l-2 6-4-1z"/><path fill="#f5b173" d="M116 355h2c2.2 3.2 2.2 4.3 2 8h-2z"/><path fill="#f0a068" d="M174 340h3l2 6h-3z"/><path fill="#ed955f" d="M168 316c2.3.8 2.3.8 4 2-5.6 2.1-5.6 2.1-9 1 2.3-1.6 2.3-1.6 5-3"/><path fill="#ee9862" d="M91 310h2c-1.2 3.7-1.7 4.8-5 7 0-3.5.7-4.4 3-7"/><path fill="#f2a368" d="m145 303 2 1c-.6 4.2-1.3 5.4-4 9z"/><path fill="#f0a36c" d="m286 262 2 1-7 6-2-1z"/><path fill="#f6b778" d="m227 243-1 2h-7v-2c3.3-.8 4.7-1.1 8 0"/><path fill="#f29a5e" d="m214 164 3 1 1 6h-2v-3h-2z"/><path fill="#eb8d58" d="M15 130c4.4 5.1 4.4 5.1 5 9-2.5-1.7-2.5-1.7-5-4-.3-2.7-.3-2.7 0-5"/><path fill="#e99865" d="M11 98c2.3 2.7 3.9 4.6 5 8h-4z"/><path fill="#f0a56b" d="m379 84 2 1-1 3c-2.6 1.2-2.6 1.2-5 2 .3-1.9.3-1.9 1-4z"/><path fill="#f4a961" d="m145 26 4 2c-3.7 3-3.7 3-6 3z"/></svg>