<svg xmlns="http://www.w3.org/2000/svg" viewBox="0 0 5933 700" role="img" aria-label="vngoweb">
<defs>
<linearGradient id="gv" x1="0" y1="0" x2="0" y2="1">
<stop offset="0" stop-color="#D93A30"/><stop offset="1" stop-color="#C81E28"/>
</linearGradient>
<linearGradient id="gw" x1="0" y1="0" x2="0" y2="1">
<stop offset="0" stop-color="#F48A38"/><stop offset="1" stop-color="#E96A28"/>
</linearGradient>
</defs>
<g fill="url(#gv)"><path d="M285.37860394537176 700.0 -14.034901365705615 0.0H199.62367223065252L452.10546282245826 605.8952959028832H325.9309559939302L584.1714719271623 0.0H779.5538694992413L480.4506828528073 700.0Z"/><path d="M856.3437025796661 700.0V0.0H1019.3118361153263L1404.7921092564493 466.3414264036419H1327.8254931714719V0.0H1521.8285280728378V700.0H1358.8603945371774L973.3801213960546 233.6585735963581H1050.3467374810318V700.0Z"/><path d="M2032.3103186646433 713.8277693474962Q1948.551593323217 713.8277693474962 1877.9825493171472 687.3277693474962Q1807.4135053110774 660.8277693474962 1755.5341426403643 611.9829286798179Q1703.654779969651 563.1380880121396 1674.9650986342945 496.6035660091047Q1646.2754172989378 430.0690440060698 1646.2754172989378 350.0Q1646.2754172989378 269.9309559939302 1674.9650986342945 203.39643399089528Q1703.654779969651 136.86191198786037 1756.0341426403643 88.01707132018208Q1808.4135053110774 39.1722306525038 1879.672230652504 12.6722306525038Q1950.9309559939302 -13.8277693474962 2036.3793626707131 -13.8277693474962Q2134.793626707132 -13.8277693474962 2212.724962063733 19.0Q2290.656297420334 51.8277693474962 2342.41502276176 113.72458270106222L2215.930197268589 227.7951441578149Q2180.1373292867984 188.55386949924127 2138.3789833080427 169.05386949924127Q2096.6206373292866 149.55386949924127 2046.2071320182094 149.55386949924127Q2001.3110773899848 149.55386949924127 1964.3805007587252 163.72610015174507Q1927.449924127466 177.89833080424887 1901.1054628224583 204.46699544764795Q1874.7610015174507 231.03566009104702 1860.433611532625 267.69044006069805Q1846.1062215477996 304.345220030349 1846.1062215477996 350.0Q1846.1062215477996 393.9650986342944 1860.433611532625 430.9647192716237Q1874.7610015174507 467.964339908953 1901.1054628224583 494.68816388467377Q1927.449924127466 521.4119878603946 1963.5356600910472 535.9290591805766Q1999.6213960546283 550.4461305007587 2043.827769347496 550.4461305007587Q2088.172230652504 550.4461305007587 2129.8960546282246 535.8600151745068Q2171.6198786039454 521.2738998482549 2214.930197268589 486.10166919575113L2326.138846737481 624.8277693474962Q2265.5523520485585 668.1380880121396 2186.965857359636 690.9829286798179Q2108.3793626707134 713.8277693474962 2032.3103186646433 713.8277693474962ZM2326.138846737481 624.8277693474962 2150.6191198786037 599.4825493171472V335.03414264036417H2326.138846737481Z"/><path d="M2825.481392593776 713.8277693474962Q2741.4453345046986 713.8277693474962 2670.1191012432446 686.8277693474962Q2598.7928679817906 659.8277693474962 2546.5686646433987 610.6380880121396Q2494.3444613050074 561.448406676783 2465.309939301973 495.0096483509944Q2436.275417298938 428.5708900252058 2436.275417298938 349.6748645133319Q2436.275417298938 270.7788390014579 2465.312223015004 204.8130050199139Q2494.3490287310697 138.84717103836988 2546.6104187128976 89.46492332000173Q2598.871808694726 40.08267560163358 2670.0413270449235 13.12745312706869Q2741.210845395121 -13.8277693474962 2825.06904400607 -13.8277693474962Q2909.517450682853 -13.8277693474962 2980.3027164363866 13.072262223625387Q3051.0879821899207 39.972293794746975 3103.283361403174 89.25457308423671Q3155.478740616427 138.53685237372645 3184.5155463324927 204.60977671797096Q3213.5523520485585 270.6827010622155 3213.5523520485585 349.70589637979623Q3213.5523520485585 428.729091697377 3184.5178300455236 495.24390851940166Q3155.4833080424887 561.7587253414264 3103.2856451162047 610.8932157733398Q3051.0879821899207 660.027706205253 2980.3027164363866 686.9277377763747Q2909.517450682853 713.8277693474962 2825.481392593776 713.8277693474962ZM2825.038162752248 550.4461305007587Q2865.206373292868 550.4461305007587 2899.4702551565224 536.2276821747973Q2933.7341370201766 522.0092338488361 2959.4004524251113 495.67646821425114Q2985.0667678300456 469.34370257966617 2999.394157814871 432.40556016835114Q3013.7215477996965 395.4674177570361 3013.7215477996965 349.90631889369257Q3013.7215477996965 304.345220030349 2999.4290250805616 267.5274082289844Q2985.136502361426 230.70959642761989 2959.455336084068 204.35963146798872Q2933.77416980671 178.00966650835755 2899.5211528036107 163.7817680037994Q2865.268135800512 149.55386949924127 2825.0999252598917 149.55386949924127Q2784.9317147192714 149.55386949924127 2750.5757574465906 163.79183267676808Q2716.2198001739102 178.0297958542949 2690.485170755827 204.39807851872897Q2664.7505413377435 230.76636118316304 2650.4283814427718 267.6085294931117Q2636.1062215477996 304.45069780306034 2636.1062215477996 349.89757955403394Q2636.1062215477996 395.3444613050076 2650.414080987298 432.2826037163226Q2664.721940426796 469.22074612763765 2690.430772944809 495.6612076616944Q2716.1396054628226 522.1016691957511 2750.504778837225 536.2738998482549Q2784.8699522116276 550.4461305007587 2825.038162752248 550.4461305007587Z"/></g>
<g fill="url(#gw)"><path d="M3510.9992412746587 700.0 3284.206373292868 0.0H3488.416540212443L3678.726100151745 605.8952959028832H3576.2761760242793L3776.654779969651 0.0H3959.2094081942337L4148.760242792109 605.8952959028832H4050.3793626707134L4247.4476479514415 0.0H4435.7610015174505L4208.96813353566 700.0H3996.930197268589L3834.793626707132 184.96813353566006H3891.6221547799696L3723.3474962063733 700.0Z"/><path d="M4542.343702579667 700.0V0.0H5090.5523520485585V153.48482549317146H4737.726100151745V546.5151745068285H5103.862670713202V700.0ZM4723.898330804249 418.51820940819425V271.1714719271624H5048.931714719271V418.51820940819425Z"/><path d="M5234.343702579667 700.0V0.0H5591.896813353566Q5730.069802731411 0.0 5797.98368740516 50.724203338391476Q5865.897572078908 101.44840667678295 5865.897572078908 182.68968133535657Q5865.897572078908 236.6206373292868 5837.638846737481 277.5Q5809.380121396054 318.3793626707132 5757.879742033383 341.448406676783Q5706.379362670713 364.5174506828528 5635.240515933232 364.5174506828528L5654.619878603946 317.03414264036417Q5728.551593323217 317.03414264036417 5783.551972685887 339.4135053110774Q5838.5523520485585 361.7928679817906 5869.190440060698 404.51707132018214Q5899.828528072838 447.2412746585736 5899.828528072838 507.9309559939302Q5899.828528072838 598.6206373292868 5826.655918057663 649.3103186646433Q5753.483308042489 700.0 5611.896813353566 700.0ZM5429.726100151745 557.3429438543247H5596.241274658573Q5647.343702579667 557.3429438543247 5673.670713201821 539.7742792109257Q5699.997723823975 522.2056145675265 5699.997723823975 486.20637329286797Q5699.997723823975 450.2071320182094 5673.670713201821 432.4833080424886Q5647.343702579667 414.7594840667678 5596.241274658573 414.7594840667678H5415.898330804249V278.30955993930195H5566.103186646434Q5616.033383915023 278.30955993930195 5641.050075872534 261.08573596358116Q5666.066767830045 243.86191198786037 5666.066767830045 210.4833080424886Q5666.066767830045 176.41502276176027 5641.050075872534 159.53603945371776Q5616.033383915023 142.65705614567526 5566.103186646434 142.65705614567526H5429.726100151745Z"/></g>
</svg>